<svg width="512" height="512" viewBox="0 0 512 512" fill="none" xmlns="http://www.w3.org/2000/svg">
<path d="M512 256C512 397.385 397.385 512 256 512C114.615 512 0 397.385 0 256C0 114.615 114.615 0 256 0C397.385 0 512 114.615 512 256ZM15.7564 256C15.7564 388.683 123.317 496.244 256 496.244C388.683 496.244 496.244 388.683 496.244 256C496.244 123.317 388.683 15.7564 256 15.7564C123.317 15.7564 15.7564 123.317 15.7564 256Z" fill="url(#paint0_linear_1402_8701)"/>
<path d="M267.186 249.86L257.082 250.047C253.758 250.085 250.246 251.398 245.995 253.178C241.743 254.957 237.091 257.307 232.987 259.813C226.712 263.644 218.434 271.96 211.206 279.533C203.978 287.106 198.107 293.838 198.107 293.838L193.494 299.128L212.084 302.806L213.52 301.429L267.186 249.86ZM239.793 265.245L209.693 294.183L208.65 293.965C210.961 291.374 212.268 289.809 216.712 285.153C223.798 277.728 232.513 269.407 236.92 266.717C237.811 266.173 238.839 265.775 239.793 265.245ZM196.065 196.585C190.203 196.888 184.393 197.809 179.049 200.091C169.139 204.323 163.767 210.275 158.871 215.069C149.461 224.283 132.553 246.934 132.553 246.934L128 252.959L185.357 275.183L187.701 271.349L232.564 198.182L223.579 197.446C223.579 197.446 217.198 196.921 213.384 196.788C207.849 196.595 201.928 196.282 196.065 196.585ZM213.006 208.01C213.226 208.018 213.423 208.036 213.67 208.049L180.908 261.48L145.953 247.926C150.628 241.864 160.261 229.155 166.327 223.214C171.576 218.074 175.221 213.856 183.177 210.459C190.355 207.394 201.856 207.613 213.005 208.001L213.006 208.01ZM313.531 287.735L238.538 330.978L240.52 335.642L260.849 383.549L266.4 378.619C266.4 378.619 285.621 361.577 294.367 353.046C299.708 347.835 306.011 340.806 309.75 332.762C315.023 321.416 317.012 314.586 317.282 302.603C317.393 297.642 315.799 293.698 315.799 293.698L313.531 287.735ZM305.741 305.076C305.318 313.651 304.501 318.18 299.978 327.91C297.302 333.667 291.746 340.173 286.925 344.875C280.353 351.287 270.071 360.424 264.857 365.081L252.424 335.814L305.741 305.076ZM325.631 128.614C310.35 129.542 293.7 129.269 277.819 135.094C268.484 138.518 260.061 144.232 252.953 150.963C242.598 160.768 236.198 173.22 229.13 183.767C211.16 210.584 178.52 265.402 178.52 265.402L176.281 269.158L244.407 340.243L247.931 338.397C247.931 338.397 281.702 320.689 311.186 302.18C322.351 295.172 332.897 288.067 340.923 281.6C351.197 273.323 361.908 264.05 369.345 251.77C375.042 242.36 377.616 231.741 379.63 221.846C383.478 202.946 384.335 183.561 383.896 164.595C383.653 154.129 382.342 144.492 380.159 133.607L379.357 129.663L375.485 129.177C364.838 127.875 342.271 127.603 325.631 128.614ZM326.267 139.82C340.799 138.939 359.823 139.393 370.071 140.273C371.618 148.791 372.86 156.666 373.05 164.876C373.476 183.309 372.632 201.821 369.027 219.528C367.083 229.075 364.662 238.393 360.163 245.821C353.936 256.106 344.285 264.658 334.253 272.74C326.829 278.721 316.528 285.7 305.56 292.585C278.178 309.775 249.809 324.666 246.449 326.438L190.045 267.576C192.808 262.946 221.315 215.11 238.039 190.151C245.576 178.904 251.72 167.341 260.273 159.241C266.478 153.367 273.776 148.471 281.45 145.657C294.909 140.72 310.474 140.779 326.267 139.82ZM182.15 261.958L162.487 301.93L216.879 354.923L254.678 334.812L249.263 329.366L182.15 261.958ZM185.145 280.598L236.3 331.979L218.724 341.323L175.827 299.535L185.145 280.598ZM311.58 166.223C293.569 166.223 278.879 181.423 278.879 200.059C278.879 218.697 293.569 233.912 311.58 233.912C329.592 233.912 344.297 218.697 344.297 200.059C344.297 181.423 329.592 166.223 311.58 166.223ZM311.58 175.832C324.57 175.832 335.009 186.62 335.009 200.059C335.009 213.5 324.57 224.303 311.58 224.303C298.591 224.303 288.166 213.5 288.166 200.059C288.166 186.62 298.591 175.832 311.58 175.832ZM159.715 317.599C158.296 317.307 156.577 317.26 154.92 318.477L154.793 318.578C149.552 322.868 143.837 328.613 138.517 334.714L138.493 334.739L138.468 334.765C136.189 337.533 136.856 341.574 139.391 344.218C142.062 347.005 145.775 347.402 148.512 345.172L148.536 345.147L148.573 345.122C154.038 340.347 159.144 335.787 164.818 329.002L164.83 328.989L164.842 328.963C166.45 326.973 166.05 324.962 165.645 323.485C165.24 322.012 164.651 320.781 163.527 319.635C162.394 318.482 161.119 317.908 159.7 317.617L159.715 317.599ZM158.534 323.782C158.298 323.931 158.222 323.896 158.498 323.954C158.813 324.031 159.235 324.31 159.162 324.235C159.064 324.134 159.5 324.774 159.631 325.223C154.487 331.292 149.862 335.501 144.627 340.075C145.105 339.674 144.276 340.114 143.84 339.67C143.108 338.909 143.579 338.564 143.235 338.984C148.306 333.174 153.75 327.726 158.542 323.787L158.534 323.782ZM176.988 336.694C175.348 336.356 173.4 336.317 171.588 337.648L171.514 337.686L171.44 337.724C164.917 343.062 157.759 350.242 151.111 357.867L151.087 357.892L151.075 357.93C148.551 360.998 149.229 365.59 152.179 368.667C155.247 371.867 159.558 372.248 162.57 369.794L162.607 369.769L162.632 369.73C169.482 363.746 175.838 358.084 182.915 349.619L182.928 349.594L182.94 349.581C184.666 347.446 184.259 345.184 183.788 343.462C183.316 341.74 182.599 340.268 181.337 338.986C180.072 337.703 178.586 337.022 176.951 336.685L176.988 336.694ZM175.233 342.922C174.989 343.103 175.239 342.935 175.763 343.055C176.301 343.169 176.925 343.555 176.987 343.618H177C177.024 343.643 177.612 344.552 177.802 345.245C177.991 345.938 177.619 346.126 178.18 345.432C171.445 353.482 165.476 358.824 158.699 364.745C158.95 364.53 157.479 365.007 156.642 364.135C155.494 362.939 155.952 362.045 155.855 362.163C162.264 354.818 169.153 347.912 175.233 342.922ZM195.154 354.989C193.734 354.696 192.015 354.646 190.359 355.866L190.231 355.967C184.99 360.257 179.276 366.002 173.956 372.104L173.931 372.129L173.907 372.155C171.628 374.923 172.294 378.963 174.83 381.608C177.501 384.394 181.214 384.792 183.95 382.562L183.975 382.537L184.011 382.511C189.477 377.738 194.582 373.178 200.257 366.392L200.269 366.366L200.281 366.353C201.889 364.363 201.474 362.353 201.067 360.875C200.663 359.398 200.096 358.158 198.965 357.009C197.832 355.854 196.557 355.298 195.139 355.006L195.154 354.989ZM193.973 361.171C193.738 361.321 193.661 361.286 193.936 361.343C194.251 361.419 194.673 361.681 194.601 361.61V361.622C194.502 361.521 194.939 362.161 195.07 362.609C189.926 368.678 185.3 372.887 180.065 377.461C180.544 377.06 179.702 377.499 179.265 377.056C178.532 376.293 179.018 375.95 178.675 376.368C183.745 370.559 189.19 365.11 193.982 361.171H193.973Z" fill="url(#paint1_linear_1402_8701)"/>
<defs>
<linearGradient id="paint0_linear_1402_8701" x1="512" y1="0" x2="0" y2="512" gradientUnits="userSpaceOnUse">
<stop stop-color="#35B8FA"/>
<stop offset="1" stop-color="#AC2DFE"/>
</linearGradient>
<linearGradient id="paint1_linear_1402_8701" x1="163.361" y1="367.304" x2="254.031" y2="140.03" gradientUnits="userSpaceOnUse">
<stop stop-color="#35B8FA"/>
<stop offset="1" stop-color="#AC2DFE"/>
</linearGradient>
</defs>
</svg>
