<svg width="180" height="180" viewBox="0 0 180 180" fill="none" xmlns="http://www.w3.org/2000/svg">
<path d="M93.6304 88.0074L90.3515 88.0681C89.2729 88.0805 88.1332 88.5064 86.7536 89.084C85.3739 89.6615 83.8641 90.4242 82.5322 91.2373C80.496 92.4806 77.8095 95.1792 75.464 97.6369C73.1183 100.095 71.213 102.279 71.213 102.279L69.716 103.996L75.7486 105.189L76.2147 104.742L93.6304 88.0074ZM84.741 93.0001L74.9731 102.391L74.6342 102.32C75.3841 101.479 75.8086 100.972 77.2505 99.4607C79.5503 97.0511 82.3783 94.3508 83.8084 93.4777C84.0978 93.3012 84.4312 93.1724 84.7409 93.0002L84.741 93.0001ZM70.5503 70.7187C68.648 70.8168 66.7626 71.116 65.0283 71.8564C61.8124 73.2295 60.0689 75.1613 58.4803 76.7169C55.4266 79.7074 49.9394 87.0576 49.9394 87.0576L48.4619 89.0131L67.0752 96.2251L67.836 94.9809L82.3948 71.2367L79.4791 70.9979C79.4791 70.9979 77.4083 70.8275 76.1707 70.7846C74.3745 70.7219 72.4528 70.6204 70.5503 70.7185V70.7187ZM76.048 74.4263C76.1194 74.4287 76.1835 74.4345 76.2636 74.4387L65.6317 91.7783L54.2881 87.3799C55.8052 85.4126 58.9313 81.2881 60.8999 79.3602C62.6032 77.6922 63.786 76.3234 66.368 75.2209C68.6974 74.2263 72.4296 74.2975 76.0477 74.4234L76.048 74.4263ZM108.67 100.298L84.3336 114.332L84.9767 115.845L91.5739 131.392L93.3753 129.792C93.3753 129.792 99.6131 124.262 102.451 121.493C104.184 119.802 106.23 117.521 107.443 114.911C109.155 111.229 109.8 109.012 109.888 105.123C109.924 103.514 109.406 102.234 109.406 102.234L108.67 100.298ZM106.142 105.926C106.005 108.709 105.74 110.179 104.272 113.336C103.404 115.204 101.601 117.316 100.036 118.842C97.9035 120.922 94.5667 123.887 92.8745 125.399L88.8398 115.901L106.142 105.926ZM112.597 48.6608C107.638 48.9619 102.235 48.8732 97.0812 50.7634C94.0516 51.8747 91.3184 53.7292 89.0116 55.9135C85.6511 59.0953 83.5741 63.1361 81.2805 66.559C75.4491 75.2614 64.8565 93.0508 64.8565 93.0508L64.1301 94.2698L86.2382 117.338L87.3819 116.739C87.3819 116.739 98.3413 110.993 107.909 104.986C111.533 102.712 114.955 100.406 117.56 98.3075C120.894 95.6217 124.37 92.6123 126.783 88.627C128.632 85.5736 129.467 82.1273 130.121 78.9161C131.369 72.7828 131.648 66.4919 131.505 60.3373C131.426 56.9407 131.001 53.8135 130.293 50.2809L130.032 49.0011L128.776 48.8435C125.32 48.4209 117.997 48.3325 112.597 48.6607L112.597 48.6608ZM112.803 52.2973C117.519 52.0115 123.693 52.1587 127.019 52.4441C127.521 55.2084 127.924 57.7641 127.985 60.4283C128.124 66.4104 127.85 72.4178 126.68 78.1641C126.049 81.2623 125.263 84.2861 123.803 86.6967C121.782 90.0341 118.651 92.8096 115.395 95.4324C112.986 97.3733 109.643 99.6381 106.083 101.873C97.1977 107.451 87.9914 112.283 86.9009 112.858L68.5968 93.7564C69.4935 92.254 78.7442 76.7304 84.1717 68.6308C86.6175 64.9807 88.6113 61.2283 91.3872 58.5998C93.4007 56.6934 95.7691 55.1048 98.2592 54.1914C102.627 52.5893 107.678 52.608 112.803 52.2968V52.2973ZM66.0345 91.9335L59.6535 104.905L77.3047 122.103L89.5712 115.576L87.8139 113.809L66.0345 91.9335ZM67.0065 97.9825L83.6073 114.657L77.9035 117.689L63.9829 104.128L67.0065 97.9825ZM108.037 60.8656C102.192 60.8656 97.4249 65.7981 97.4249 71.8462C97.4249 77.8943 102.192 82.832 108.037 82.832C113.882 82.832 118.654 77.8943 118.654 71.8462C118.654 65.7981 113.882 60.8656 108.037 60.8656ZM108.037 63.984C112.253 63.984 115.64 67.4846 115.64 71.8462C115.64 76.2079 112.253 79.7136 108.037 79.7136C103.822 79.7136 100.439 76.2079 100.439 71.8462C100.439 67.4846 103.822 63.984 108.037 63.984ZM58.754 109.99C58.2935 109.895 57.7356 109.88 57.1981 110.275L57.1566 110.308C55.456 111.7 53.6012 113.564 51.875 115.544L51.8671 115.552L51.859 115.56C51.1195 116.459 51.3357 117.77 52.1584 118.628C53.0254 119.533 54.2304 119.662 55.1183 118.938L55.1263 118.93L55.1383 118.922C56.9118 117.372 58.5688 115.893 60.4101 113.69L60.414 113.686L60.418 113.678C60.9397 113.032 60.8099 112.38 60.6783 111.9C60.5472 111.422 60.3558 111.023 59.9911 110.651C59.6235 110.277 59.2098 110.09 58.7493 109.996L58.754 109.99ZM58.3709 111.996C58.2944 112.045 58.2697 112.033 58.359 112.052C58.4614 112.077 58.5982 112.168 58.5747 112.143C58.5428 112.11 58.6842 112.319 58.7269 112.464C57.0575 114.434 55.5566 115.8 53.8577 117.284C54.0128 117.154 53.744 117.296 53.6024 117.152C53.3648 116.905 53.5176 116.793 53.4059 116.93C55.0514 115.044 56.8183 113.276 58.3733 111.998L58.3709 111.996ZM64.3594 116.187C63.8274 116.077 63.1949 116.064 62.607 116.496L62.583 116.509L62.5592 116.521C60.4423 118.253 58.1194 120.583 55.962 123.058L55.9541 123.066L55.9501 123.078C55.1312 124.074 55.351 125.564 56.3085 126.562C57.3042 127.601 58.703 127.725 59.6807 126.928L59.6926 126.92L59.7007 126.908C61.9237 124.966 63.9862 123.128 66.283 120.381L66.287 120.373L66.291 120.369C66.851 119.676 66.7192 118.942 66.5661 118.383C66.413 117.824 66.1805 117.347 65.7708 116.93C65.3601 116.514 64.8779 116.293 64.3474 116.184L64.3594 116.187ZM63.79 118.208C63.7107 118.266 63.7918 118.212 63.9618 118.251C64.1364 118.288 64.3389 118.413 64.3593 118.434H64.3633C64.3713 118.442 64.5619 118.737 64.6236 118.962C64.685 119.186 64.5642 119.248 64.7464 119.022C62.5607 121.635 60.6236 123.368 58.4242 125.29C58.5059 125.22 58.0283 125.375 57.7566 125.092C57.3843 124.704 57.533 124.413 57.5015 124.452C59.5813 122.068 61.8162 119.829 63.7894 118.21L63.79 118.208ZM70.2546 122.124C69.7941 122.029 69.236 122.012 68.6985 122.408L68.6571 122.441C66.9564 123.833 65.1018 125.698 63.3755 127.678L63.3675 127.686L63.3596 127.694C62.62 128.593 62.8363 129.904 63.659 130.762C64.5259 131.666 65.7309 131.795 66.6189 131.072L66.6268 131.064L66.6387 131.055C68.4123 129.506 70.0693 128.026 71.9106 125.824L71.9146 125.816L71.9185 125.812C72.4402 125.166 72.3056 124.513 72.1736 124.034C72.0425 123.554 71.8584 123.152 71.4914 122.779C71.1238 122.404 70.71 122.224 70.2496 122.129L70.2546 122.124ZM69.8715 124.13C69.7949 124.179 69.7701 124.167 69.8594 124.186C69.9619 124.21 70.0986 124.295 70.0751 124.272V124.276C70.0432 124.243 70.1848 124.451 70.2274 124.596C68.5581 126.566 67.057 127.932 65.3581 129.416C65.5136 129.286 65.2402 129.429 65.0982 129.285C64.8606 129.037 65.0181 128.926 64.9069 129.062C66.5523 127.176 68.3194 125.408 69.8744 124.13H69.8715Z" fill="url(#paint0_linear_1317_8688)"/>
<path d="M180 90C180 139.706 139.706 180 90 180C40.2944 180 0 139.706 0 90C0 40.2944 40.2944 0 90 0C139.706 0 180 40.2944 180 90ZM5.53938 90C5.53938 136.646 43.3537 174.461 90 174.461C136.646 174.461 174.461 136.646 174.461 90C174.461 43.3537 136.646 5.53938 90 5.53938C43.3537 5.53938 5.53938 43.3537 5.53938 90Z" fill="url(#paint1_linear_1317_8688)"/>
<defs>
<linearGradient id="paint0_linear_1317_8688" x1="59.9372" y1="126.12" x2="89.3614" y2="52.3655" gradientUnits="userSpaceOnUse">
<stop stop-color="#35B8FA"/>
<stop offset="1" stop-color="#AC2DFE"/>
</linearGradient>
<linearGradient id="paint1_linear_1317_8688" x1="180" y1="0" x2="0" y2="180" gradientUnits="userSpaceOnUse">
<stop stop-color="#35B8FA"/>
<stop offset="1" stop-color="#AC2DFE"/>
</linearGradient>
</defs>
</svg>
