<svg width="637" height="106" viewBox="0 0 637 106" fill="none" xmlns="http://www.w3.org/2000/svg">
<path d="M57.6316 50.4578L53.4481 50.5352C52.0717 50.5509 50.6176 51.0944 48.8572 51.8313C47.0968 52.5683 45.1706 53.5414 43.4711 54.5788C40.873 56.1651 37.4453 59.6085 34.4526 62.7443C31.4597 65.88 29.0286 68.6673 29.0286 68.6673L27.1185 70.8575L34.8159 72.3805L35.4106 71.8105L57.6316 50.4578ZM46.2894 56.8279L33.8262 68.8101L33.394 68.7198C34.3509 67.647 34.8923 66.9991 36.7322 65.0713C39.6665 61.9967 43.2747 58.5515 45.0995 57.4374C45.4687 57.2122 45.8943 57.0476 46.2894 56.8279ZM28.1833 28.3984C25.7559 28.5238 23.3503 28.9054 21.1374 29.8501C17.0342 31.6023 14.8096 34.0671 12.7827 36.0519C8.88637 39.8674 1.88511 49.246 1.88511 49.246L0 51.741L23.7492 60.9428L24.7198 59.3555L43.2959 29.0596L39.5756 28.7549C39.5756 28.7549 36.9336 28.5376 35.3544 28.4827C33.0624 28.4027 30.6107 28.2731 28.1833 28.3984ZM35.1978 33.1292C35.289 33.1324 35.3706 33.1398 35.4729 33.1451L21.9074 55.2692L7.4338 49.657C9.36949 47.1469 13.3581 41.8843 15.8699 39.4246C18.0433 37.2963 19.5523 35.5497 22.8469 34.1431C25.819 32.874 30.581 32.9649 35.1973 33.1255L35.1978 33.1292ZM76.8213 66.1403L45.7697 84.0455L46.5902 85.9766L55.0076 105.813L57.3062 103.772C57.3062 103.772 65.265 96.7154 68.8862 93.183C71.0979 91.0253 73.7076 88.1151 75.2557 84.7843C77.4393 80.0864 78.2629 77.2581 78.3748 72.2965C78.4203 70.2425 77.7605 68.6093 77.7605 68.6093L76.8213 66.1403ZM73.596 73.3204C73.4209 76.8712 73.0825 78.7463 71.2097 82.7754C70.1017 85.159 67.801 87.8528 65.805 89.8C63.0837 92.4547 58.8263 96.2379 56.6673 98.1663L51.5192 86.0479L73.596 73.3204ZM81.8317 0.25438C75.5043 0.638589 68.6101 0.525405 62.0346 2.93718C58.1691 4.35503 54.6817 6.72125 51.7383 9.50825C47.4506 13.568 44.8006 18.7238 41.8742 23.0911C34.4336 34.1948 20.9183 56.8928 20.9183 56.8928L19.9914 58.4481L48.1998 87.8819L49.6591 87.1174C49.6591 87.1174 63.6424 79.7854 75.8506 72.1216C80.4733 69.2196 84.8402 66.2775 88.1636 63.6C92.4176 60.173 96.8527 56.3331 99.9317 51.2483C102.291 47.3523 103.357 42.9552 104.191 38.858C105.784 31.0323 106.139 23.0056 105.957 15.1527C105.856 10.819 105.313 6.82889 104.41 2.32154L104.078 0.688531L102.474 0.487438C98.0658 -0.0517191 88.7214 -0.164303 81.8317 0.25438ZM82.0948 4.89434C88.1119 4.52959 95.9893 4.7174 100.232 5.08161C100.873 8.60865 101.387 11.8695 101.466 15.2688C101.643 22.9015 101.293 30.5664 99.8003 37.8984C98.9955 41.8514 97.9927 45.7096 96.13 48.7854C93.5516 53.0437 89.5556 56.5849 85.4018 59.9316C82.3278 62.408 78.0623 65.2976 73.5208 68.1484C62.1833 75.2661 50.4366 81.4318 49.0454 82.1656L25.6906 57.793C26.8347 55.876 38.638 36.0691 45.563 25.7346C48.6837 21.0774 51.2277 16.2895 54.7694 12.9358C57.3386 10.5033 60.3603 8.47639 63.5377 7.31098C69.1106 5.2669 75.5554 5.29139 82.0948 4.89434ZM22.4214 55.4671L14.2796 72.018L36.8013 93.9605L52.4525 85.6331L50.2103 83.378L22.4214 55.4671ZM23.6615 63.1852L44.843 84.4602L37.5653 88.329L19.8036 71.0263L23.6615 63.1852ZM76.0136 15.8268C68.5557 15.8268 62.4732 22.1204 62.4732 29.8371C62.4732 37.5542 68.5557 43.8543 76.0136 43.8543C83.4718 43.8543 89.5604 37.5542 89.5604 29.8371C89.5604 22.1204 83.4718 15.8268 76.0136 15.8268ZM76.0136 19.8056C81.3921 19.8056 85.7147 24.2721 85.7147 29.8371C85.7147 35.4024 81.3921 39.8753 76.0136 39.8753C70.6352 39.8753 66.3186 35.4024 66.3186 29.8371C66.3186 24.2721 70.6352 19.8056 76.0136 19.8056ZM13.132 78.506C12.5444 78.3851 11.8325 78.3655 11.1467 78.8693L11.0938 78.9114C8.92392 80.6874 6.5574 83.0663 4.35482 85.5923L4.34473 85.6029L4.33447 85.6135C3.39091 86.7596 3.66678 88.4328 4.71649 89.5276C5.82268 90.6816 7.36016 90.8462 8.49309 89.9229L8.50332 89.9123L8.51853 89.902C10.7814 87.9251 12.8956 86.037 15.2449 83.2272L15.2499 83.2219L15.255 83.2113C15.9208 82.3874 15.7551 81.5548 15.5872 80.9432C15.4199 80.3331 15.1757 79.8233 14.7103 79.3489C14.2414 78.8717 13.7135 78.6339 13.1259 78.5131L13.132 78.506ZM12.6431 81.0659C12.5455 81.1279 12.514 81.113 12.6279 81.1374C12.7587 81.1689 12.9332 81.2847 12.9032 81.2535C12.8625 81.2116 13.0429 81.4769 13.0974 81.6626C10.9673 84.1756 9.05229 85.9185 6.88459 87.8125C7.08247 87.6461 6.73948 87.8284 6.55891 87.6445C6.25575 87.3294 6.45065 87.1866 6.30822 87.3604C8.40776 84.955 10.6622 82.699 12.6462 81.068L12.6431 81.0659ZM20.284 86.4122C19.6052 86.2726 18.7982 86.2564 18.0481 86.8073L18.0175 86.8232L17.9871 86.8389C15.2861 89.0492 12.3222 92.0223 9.5696 95.1792L9.5595 95.1898L9.55438 95.2055C8.50954 96.4756 8.78999 98.377 10.0117 99.6511C11.2821 100.976 13.0669 101.134 14.3143 100.118L14.3296 100.107L14.3398 100.092C17.1762 97.6138 19.8079 95.269 22.7383 91.7642L22.7435 91.7538L22.7486 91.7485C23.4631 90.8642 23.2949 89.9277 23.0996 89.2149C22.9042 88.5017 22.6076 87.8922 22.0848 87.3614C21.5609 86.8301 20.9456 86.5482 20.2686 86.4088L20.284 86.4122ZM19.5575 88.9912C19.4563 89.0659 19.5598 88.9965 19.7767 89.0461C19.9995 89.0932 20.2579 89.2533 20.2839 89.2793H20.289C20.2991 89.2896 20.5423 89.6659 20.6212 89.9529C20.6995 90.2399 20.5453 90.3178 20.7778 90.0305C17.989 93.3634 15.5174 95.5754 12.7111 98.0272C12.8154 97.9381 12.206 98.1356 11.8594 97.7746C11.3843 97.2793 11.5741 96.9091 11.5339 96.9582C14.1875 93.917 17.0398 91.0571 19.5575 88.9912ZM27.8059 93.9875C27.2181 93.8664 26.5061 93.8455 25.8204 94.3508L25.7675 94.3927C23.5976 96.169 21.2313 98.5479 19.0287 101.074L19.0184 101.085L19.0083 101.095C18.0646 102.241 18.3406 103.914 19.3904 105.009C20.4965 106.163 22.034 106.328 23.1669 105.405L23.177 105.394L23.1922 105.384C25.4552 103.407 27.5693 101.519 29.9188 98.709L29.924 98.6984L29.9288 98.6931C30.5945 97.869 30.4228 97.0366 30.2545 96.425C30.087 95.8131 29.8522 95.2998 29.384 94.8241C28.9149 94.3458 28.3871 94.1158 27.7995 93.9947L27.8059 93.9875ZM27.317 96.5474C27.2195 96.6094 27.1877 96.5948 27.3016 96.6184C27.4323 96.65 27.6069 96.7583 27.5769 96.7289V96.7342C27.5361 96.6921 27.7169 96.9574 27.7712 97.1426C25.6413 99.6556 23.7259 101.398 21.5583 103.292C21.7567 103.126 21.4078 103.308 21.2267 103.125C20.9236 102.809 21.1245 102.667 20.9825 102.84C23.082 100.434 25.3367 98.1785 27.3207 96.5474H27.317Z" fill="url(#paint0_linear_1402_8684)"/>
<path d="M170.084 77L160.564 59.32H159.136V77H145.808V29.06H166.82C170.673 29.06 173.937 29.74 176.612 31.1C179.287 32.4147 181.304 34.2507 182.664 36.608C184.024 38.92 184.704 41.5267 184.704 44.428C184.704 47.692 183.797 50.5707 181.984 53.064C180.216 55.512 177.609 57.2573 174.164 58.3L184.976 77H170.084ZM159.136 50.208H165.732C167.545 50.208 168.905 49.7773 169.812 48.916C170.719 48.0547 171.172 46.808 171.172 45.176C171.172 43.6347 170.696 42.4333 169.744 41.572C168.837 40.6653 167.5 40.212 165.732 40.212H159.136V50.208ZM214.769 77.476C210.281 77.476 206.156 76.4333 202.393 74.348C198.63 72.2173 195.638 69.2933 193.417 65.576C191.241 61.8133 190.153 57.5747 190.153 52.86C190.153 48.1453 191.241 43.9293 193.417 40.212C195.638 36.4493 198.63 33.5253 202.393 31.44C206.156 29.3547 210.281 28.312 214.769 28.312C219.302 28.312 223.428 29.3547 227.145 31.44C230.908 33.5253 233.877 36.4493 236.053 40.212C238.229 43.9293 239.317 48.1453 239.317 52.86C239.317 57.5747 238.229 61.8133 236.053 65.576C233.877 69.2933 230.908 72.2173 227.145 74.348C223.382 76.4333 219.257 77.476 214.769 77.476ZM214.769 65.1C218.169 65.1 220.844 63.9893 222.793 61.768C224.788 59.5467 225.785 56.5773 225.785 52.86C225.785 49.052 224.788 46.06 222.793 43.884C220.844 41.6627 218.169 40.552 214.769 40.552C211.324 40.552 208.626 41.6627 206.677 43.884C204.728 46.06 203.753 49.052 203.753 52.86C203.753 56.6227 204.728 59.6147 206.677 61.836C208.626 64.012 211.324 65.1 214.769 65.1ZM276.928 52.384C279.739 53.0187 281.96 54.424 283.592 56.6C285.27 58.7307 286.108 61.1787 286.108 63.944C286.108 68.024 284.703 71.22 281.892 73.532C279.082 75.844 275.138 77 270.06 77H246.328V29.06H269.312C274.208 29.06 278.039 30.148 280.804 32.324C283.615 34.5 285.02 37.56 285.02 41.504C285.02 44.3147 284.272 46.672 282.776 48.576C281.326 50.4347 279.376 51.704 276.928 52.384ZM259.656 48.1H266.388C269.743 48.1 271.42 46.7173 271.42 43.952C271.42 41.096 269.743 39.668 266.388 39.668H259.656V48.1ZM267.408 66.256C270.763 66.256 272.44 64.8507 272.44 62.04C272.44 60.5893 271.987 59.4787 271.08 58.708C270.219 57.9373 268.972 57.552 267.34 57.552H259.656V66.256H267.408ZM315.954 77.476C311.466 77.476 307.34 76.4333 303.578 74.348C299.815 72.2173 296.823 69.2933 294.602 65.576C292.426 61.8133 291.338 57.5747 291.338 52.86C291.338 48.1453 292.426 43.9293 294.602 40.212C296.823 36.4493 299.815 33.5253 303.578 31.44C307.34 29.3547 311.466 28.312 315.954 28.312C320.487 28.312 324.612 29.3547 328.33 31.44C332.092 33.5253 335.062 36.4493 337.238 40.212C339.414 43.9293 340.502 48.1453 340.502 52.86C340.502 57.5747 339.414 61.8133 337.238 65.576C335.062 69.2933 332.092 72.2173 328.33 74.348C324.567 76.4333 320.442 77.476 315.954 77.476ZM315.954 65.1C319.354 65.1 322.028 63.9893 323.978 61.768C325.972 59.5467 326.97 56.5773 326.97 52.86C326.97 49.052 325.972 46.06 323.978 43.884C322.028 41.6627 319.354 40.552 315.954 40.552C312.508 40.552 309.811 41.6627 307.862 43.884C305.912 46.06 304.938 49.052 304.938 52.86C304.938 56.6227 305.912 59.6147 307.862 61.836C309.811 64.012 312.508 65.1 315.954 65.1ZM360.841 66.8H375.733V77H347.513V29.06H360.841V66.8ZM412.263 69.18H395.263L392.679 77H378.671L396.147 29.06H411.515L428.923 77H414.847L412.263 69.18ZM408.931 58.98L403.763 43.476L398.663 58.98H408.931ZM447.343 29.06V56.872C447.343 59.456 447.933 61.4507 449.111 62.856C450.335 64.2613 452.171 64.964 454.619 64.964C457.067 64.964 458.903 64.2613 460.127 62.856C461.397 61.4053 462.031 59.4107 462.031 56.872V29.06H475.359V56.872C475.359 61.2693 474.43 65.032 472.571 68.16C470.713 71.2427 468.174 73.5773 464.955 75.164C461.782 76.7053 458.246 77.476 454.347 77.476C450.449 77.476 446.958 76.7053 443.875 75.164C440.838 73.5773 438.435 71.2427 436.667 68.16C434.945 65.0773 434.083 61.3147 434.083 56.872V29.06H447.343ZM528.122 77H514.794L497.046 50.208V77H483.718V29.06H497.046L514.794 56.192V29.06H528.122V77ZM535.102 52.928C535.102 48.2133 536.076 44.02 538.026 40.348C540.02 36.6307 542.831 33.752 546.458 31.712C550.084 29.6267 554.255 28.584 558.97 28.584C564.954 28.584 569.986 30.1933 574.066 33.412C578.146 36.5853 580.775 40.9147 581.954 46.4H567.606C566.744 44.5867 565.543 43.204 564.002 42.252C562.506 41.3 560.76 40.824 558.766 40.824C555.683 40.824 553.212 41.9347 551.354 44.156C549.54 46.332 548.634 49.256 548.634 52.928C548.634 56.6453 549.54 59.6147 551.354 61.836C553.212 64.012 555.683 65.1 558.766 65.1C560.76 65.1 562.506 64.624 564.002 63.672C565.543 62.72 566.744 61.3373 567.606 59.524H581.954C580.775 65.0093 578.146 69.3613 574.066 72.58C569.986 75.7533 564.954 77.34 558.97 77.34C554.255 77.34 550.084 76.32 546.458 74.28C542.831 72.1947 540.02 69.316 538.026 65.644C536.076 61.9267 535.102 57.688 535.102 52.928ZM632.193 29.06V77H618.865V57.756H602.613V77H589.285V29.06H602.613V47.08H618.865V29.06H632.193Z" fill="black"/>
<defs>
<linearGradient id="paint0_linear_1402_8684" x1="14.6416" y1="99.0869" x2="52.1846" y2="4.98137" gradientUnits="userSpaceOnUse">
<stop stop-color="#35B8FA"/>
<stop offset="1" stop-color="#AC2DFE"/>
</linearGradient>
</defs>
</svg>
