<svg width="628" height="100" viewBox="0 0 628 100" fill="none" xmlns="http://www.w3.org/2000/svg">
<path d="M54.3696 47.6016L50.4227 47.6745C49.1242 47.6895 47.7527 48.2024 46.0919 48.8976C44.4311 49.5927 42.6138 50.5109 41.0104 51.4895C38.5596 52.9862 35.3258 56.2344 32.5025 59.1927C29.6789 62.151 27.3856 64.7805 27.3856 64.7805L25.5836 66.8469L32.8451 68.2834L33.4061 67.7457L54.3696 47.6016ZM43.6692 53.6113L31.9116 64.9154L31.5037 64.8299C32.4064 63.8178 32.9173 63.2065 34.653 61.3878C37.4212 58.4874 40.8254 55.2372 42.5465 54.1862C42.895 53.9737 43.2965 53.8186 43.6692 53.6113ZM26.5879 26.7911C24.298 26.9093 22.0286 27.2693 19.941 28.1606C16.07 29.8134 13.9713 32.1387 12.0592 34.0112C8.38338 37.6108 1.7784 46.4583 1.7784 46.4583L0 48.8121L22.4049 57.4935L23.3206 55.9955L40.845 27.4146L37.3355 27.1272C37.3355 27.1272 34.8429 26.9221 33.3531 26.8705C31.191 26.7951 28.8779 26.673 26.5879 26.7911ZM33.2055 31.254C33.2914 31.257 33.3686 31.2639 33.465 31.2689L20.6674 52.1405L7.013 46.8461C8.83915 44.4781 12.602 39.5136 14.9716 37.193C17.022 35.1851 18.4456 33.5375 21.5536 32.2105C24.3575 31.0133 28.85 31.0989 33.2051 31.2506L33.2055 31.254ZM72.4731 62.3963L43.1788 79.2882L43.9531 81.1101L51.8938 99.8239L54.0623 97.8979C54.0623 97.8979 61.5708 91.2409 64.9869 87.9085C67.0734 85.8729 69.5354 83.1275 70.9961 79.985C73.0561 75.553 73.8331 72.885 73.9384 68.2044C73.9815 66.2664 73.3592 64.7255 73.3592 64.7255L72.4731 62.3963ZM69.43 69.1704C69.265 72.5202 68.9457 74.2891 67.1788 78.0899C66.1338 80.3388 63.9634 82.8797 62.08 84.717C59.5131 87.2214 55.4965 90.7903 53.4596 92.6097L48.6031 81.1773L69.43 69.1704ZM77.2 0.239981C71.2304 0.602441 64.7265 0.495668 58.5231 2.77093C54.8765 4.1085 51.5865 6.34081 48.8096 8.97004C44.7646 12.8 42.2646 17.664 39.5038 21.784C32.4845 32.2593 19.7342 53.6725 19.7342 53.6725L18.8598 55.1397L45.4715 82.9073L46.8481 82.1862C46.8481 82.1862 60.04 75.2692 71.5573 68.0393C75.9184 65.3016 80.0381 62.5259 83.1731 60C87.1865 56.7668 91.3704 53.1445 94.2754 48.3474C96.5007 44.6721 97.5061 40.5239 98.2931 36.6584C99.7957 29.2758 100.131 21.7034 99.9592 14.295C99.8646 10.2066 99.3523 6.44235 98.5 2.19013L98.1865 0.649558L96.6738 0.459846C92.515 -0.0487915 83.6996 -0.155003 77.2 0.239981ZM77.4481 4.61729C83.1246 4.2732 90.5561 4.45036 94.5588 4.79397C95.1631 8.12138 95.6484 11.1976 95.7227 14.4046C95.8892 21.6052 95.5592 28.8364 94.1511 35.7532C93.3919 39.4825 92.4457 43.1223 90.6888 46.0239C88.2561 50.0413 84.4865 53.3822 80.5677 56.5393C77.6677 58.8753 73.6434 61.6016 69.3592 64.2911C58.6634 71.0057 47.5819 76.8227 46.2692 77.5146L24.2365 54.5219C25.3158 52.7133 36.4509 34.0275 42.9838 24.2779C45.9281 19.8844 48.3281 15.3675 51.6692 12.2036C54.0931 9.90878 56.9438 7.9966 59.9411 6.89716C65.1988 4.96874 71.2788 4.99186 77.4481 4.61729ZM21.1522 52.3275L13.4713 67.9413L34.7181 88.6421L49.4834 80.7862L47.3681 78.6587L21.1522 52.3275ZM22.3222 59.6085L42.3046 79.6793L35.4389 83.3291L18.6826 67.0061L22.3222 59.6085ZM71.7111 14.931C64.6754 14.931 58.9369 20.8683 58.9369 28.1483C58.9369 35.4285 64.6754 41.3721 71.7111 41.3721C78.7469 41.3721 84.4907 35.4285 84.4907 28.1483C84.4907 20.8683 78.7469 14.931 71.7111 14.931ZM71.7111 18.6846C76.785 18.6846 80.8631 22.8983 80.8631 28.1483C80.8631 33.3985 76.785 37.6183 71.7111 37.6183C66.6369 37.6183 62.5646 33.3985 62.5646 28.1483C62.5646 22.8983 66.6369 18.6846 71.7111 18.6846ZM12.3887 74.0623C11.8343 73.9482 11.1627 73.9299 10.5158 74.4048L10.4658 74.4445C8.41881 76.1202 6.18623 78.3643 4.10831 80.7473L4.09881 80.7575L4.08911 80.7672C3.19898 81.8486 3.45923 83.4271 4.44954 84.4599C5.49308 85.5486 6.94354 85.704 8.01234 84.8332L8.022 84.8231L8.03634 84.8133C10.1712 82.9482 12.1657 81.1672 14.382 78.5162L14.3867 78.5113L14.3915 78.5012C15.0196 77.7239 14.8633 76.9384 14.7049 76.3615C14.5471 75.7862 14.3167 75.3048 13.8777 74.8575C13.4352 74.4073 12.9372 74.183 12.3829 74.0688L12.3887 74.0623ZM11.9275 76.4773C11.8353 76.5356 11.8057 76.5218 11.9132 76.5445C12.0365 76.5745 12.2011 76.6838 12.1728 76.6542C12.1344 76.6146 12.3046 76.8652 12.356 77.0405C10.3465 79.4109 8.53988 81.055 6.49488 82.8421C6.68158 82.685 6.358 82.8571 6.18765 82.6838C5.90165 82.3862 6.0855 82.2514 5.95115 82.4154C7.93184 80.1461 10.0587 78.0178 11.9304 76.4793L11.9275 76.4773ZM19.1358 81.521C18.4955 81.3895 17.7342 81.3741 17.0265 81.8939L16.9977 81.9085L16.969 81.9235C14.4208 84.0089 11.6247 86.8133 9.02792 89.7919L9.01842 89.8016L9.01357 89.8166C8.02788 91.0146 8.29246 92.8085 9.445 94.0105C10.6435 95.2607 12.3272 95.4093 13.5041 94.451L13.5185 94.4409L13.5281 94.4259C16.204 92.0882 18.6867 89.8765 21.4513 86.57L21.4561 86.5603L21.4609 86.5554C22.135 85.721 21.9763 84.8376 21.792 84.1648C21.6078 83.4923 21.3279 82.9174 20.8348 82.4166C20.3404 81.9154 19.76 81.6494 19.1214 81.5178L19.1358 81.521ZM18.4505 83.9538C18.355 84.0247 18.4526 83.9591 18.6573 84.0056C18.8675 84.0502 19.1112 84.2012 19.1357 84.2255H19.1405C19.1501 84.2356 19.3796 84.5907 19.4539 84.8615C19.5278 85.132 19.3824 85.2056 19.6017 84.9344C16.9707 88.0789 14.6391 90.1656 11.9917 92.4785C12.09 92.3947 11.5151 92.5809 11.1881 92.2401C10.7399 91.7729 10.9189 91.4239 10.881 91.47C13.3845 88.6012 16.0745 85.9052 18.4498 83.9563L18.4505 83.9538ZM26.2319 88.6676C25.6776 88.5534 25.0058 88.5336 24.3589 89.0101L24.309 89.0498C22.2619 90.7255 20.0295 92.9696 17.9516 95.353L17.9419 95.3627L17.9324 95.3729C17.0421 96.4542 17.3025 98.0324 18.2928 99.0656C19.3363 100.154 20.7868 100.309 21.8556 99.4384L21.8651 99.4283L21.8795 99.4186C24.0143 97.5534 26.0088 95.7724 28.2253 93.1218L28.2301 93.1117L28.2348 93.1069C28.8628 92.3295 28.7007 91.5441 28.5419 90.9668C28.384 90.3895 28.1624 89.9052 27.7206 89.4567C27.2782 89.0057 26.7801 88.7886 26.2259 88.6745L26.2319 88.6676ZM25.7708 91.0826C25.6786 91.1409 25.6488 91.1271 25.7563 91.1494C25.8796 91.1793 26.0442 91.2818 26.0159 91.2538V91.2587C25.9775 91.219 26.1479 91.4692 26.1993 91.6441C24.1899 94.015 22.383 95.6591 20.338 97.4457C20.5251 97.289 20.196 97.4607 20.0252 97.2874C19.7392 96.9895 19.9287 96.8554 19.7948 97.0186C21.7755 94.7494 23.9025 92.621 25.7743 91.0826H25.7708Z" fill="url(#paint0_linear_1412_8685)"/>
<path d="M136.352 72H149.088V59.008H154.272L163.168 72H177.568L167.456 57.152C172.896 54.592 176.032 49.28 176.032 43.136C176.032 34.176 169.632 27.2 159.2 27.2H136.352V72ZM149.088 37.376H158.112C161.888 37.376 163.936 40 163.936 43.136C163.872 46.144 162.016 48.832 158.112 48.832H149.088V37.376ZM180.867 49.472C180.867 62.272 191.299 72.64 205.251 72.704C219.139 72.768 229.507 62.464 229.571 49.472C229.635 36.672 219.203 26.496 205.251 26.496C191.299 26.496 180.867 36.544 180.867 49.472ZM193.603 49.472C193.603 42.688 198.787 37.376 205.251 37.376C211.651 37.376 216.835 42.624 216.835 49.472C216.835 56.384 211.651 61.888 205.251 61.888C198.787 61.888 193.603 56.32 193.603 49.472ZM236.227 27.2V72H261.891C273.283 72 278.787 66.432 278.787 58.624C278.787 52.992 275.075 49.28 271.363 48.32C274.883 46.72 277.251 43.328 277.251 38.784C277.251 32.384 271.875 27.2 260.547 27.2H236.227ZM261.123 53.824C264.195 53.824 266.051 55.168 266.051 57.792C266.051 60.224 264.195 61.824 260.995 61.824H248.963V53.824H261.123ZM259.843 37.376C262.915 37.376 264.579 38.848 264.643 41.024C264.707 43.136 263.043 44.608 259.843 44.608H248.963V37.376H259.843ZM283.367 49.472C283.367 62.272 293.799 72.64 307.751 72.704C321.639 72.768 332.007 62.464 332.071 49.472C332.135 36.672 321.703 26.496 307.751 26.496C293.799 26.496 283.367 36.544 283.367 49.472ZM296.103 49.472C296.103 42.688 301.287 37.376 307.751 37.376C314.151 37.376 319.335 42.624 319.335 49.472C319.335 56.384 314.151 61.888 307.751 61.888C301.287 61.888 296.103 56.32 296.103 49.472ZM351.463 61.824V27.2H338.727V72H372.135V61.824H351.463ZM388.521 72L391.721 64.768H412.201L415.401 72H428.777L408.617 27.2H395.305L375.081 72H388.521ZM396.137 54.656L401.961 41.728L407.721 54.656H396.137ZM450.7 72.704C461.451 72.704 470.796 66.432 470.796 54.656V27.2H458.06V54.656C458.06 58.88 455.564 62.528 450.636 62.528C445.836 62.528 443.276 58.88 443.276 54.656V27.2H430.54V54.656C430.54 66.432 439.884 72.704 450.7 72.704ZM479.227 27.2V72H491.963V47.552L509.563 72H522.491V27.2H509.755V51.584L492.091 27.2H479.227ZM553.501 72.64C564.189 72.64 570.589 66.944 572.957 62.784L564.765 57.088C563.293 59.328 560.541 62.336 554.077 62.336C547.421 62.336 541.853 57.472 541.853 49.728C541.853 41.92 547.549 36.864 554.141 36.864C559.645 36.864 562.653 39.488 564.509 41.984L573.021 35.712C569.757 30.976 563.037 26.624 553.501 26.624C540.253 26.688 529.117 35.776 529.117 49.728C529.117 63.872 540.125 72.64 553.501 72.64ZM579.354 27.2V72H592.09V54.72H610.074V72H622.81V27.2H610.074V44.544H592.026V27.2H579.354Z" fill="black"/>
<defs>
<linearGradient id="paint0_linear_1412_8685" x1="-21.4246" y1="42.2077" x2="51.3328" y2="-18.4894" gradientUnits="userSpaceOnUse">
<stop stop-color="#35B8FA"/>
<stop offset="1" stop-color="#AC2DFE"/>
</linearGradient>
</defs>
</svg>
