<svg width="161" height="38" viewBox="0 0 161 38" fill="none" xmlns="http://www.w3.org/2000/svg">
<g clip-path="url(#clip0_1317_8684)">
<path d="M56.0156 12.625H60.2578C61.1276 12.625 61.875 12.7552 62.5 13.0156C63.1302 13.276 63.6146 13.6615 63.9531 14.1719C64.2917 14.6823 64.4609 15.3099 64.4609 16.0547C64.4609 16.6641 64.3568 17.1875 64.1484 17.625C63.9453 18.0573 63.6562 18.4193 63.2812 18.7109C62.9115 18.9974 62.4766 19.2266 61.9766 19.3984L61.2344 19.7891H57.5469L57.5312 17.9609H60.2734C60.6849 17.9609 61.026 17.888 61.2969 17.7422C61.5677 17.5964 61.7708 17.3932 61.9062 17.1328C62.0469 16.8724 62.1172 16.5703 62.1172 16.2266C62.1172 15.862 62.0495 15.5469 61.9141 15.2812C61.7786 15.0156 61.5729 14.8125 61.2969 14.6719C61.0208 14.5312 60.6745 14.4609 60.2578 14.4609H58.3594V24H56.0156V12.625ZM62.375 24L59.7812 18.9297L62.2578 18.9141L64.8828 23.8906V24H62.375ZM75.6094 18.0469V18.5859C75.6094 19.4505 75.4922 20.2266 75.2578 20.9141C75.0234 21.6016 74.6927 22.1875 74.2656 22.6719C73.8385 23.151 73.3281 23.5182 72.7344 23.7734C72.1458 24.0286 71.4922 24.1562 70.7734 24.1562C70.0599 24.1562 69.4062 24.0286 68.8125 23.7734C68.224 23.5182 67.7135 23.151 67.2812 22.6719C66.849 22.1875 66.513 21.6016 66.2734 20.9141C66.0391 20.2266 65.9219 19.4505 65.9219 18.5859V18.0469C65.9219 17.1771 66.0391 16.401 66.2734 15.7188C66.5078 15.0312 66.8385 14.4453 67.2656 13.9609C67.6979 13.4766 68.2083 13.1068 68.7969 12.8516C69.3906 12.5964 70.0443 12.4688 70.7578 12.4688C71.4766 12.4688 72.1302 12.5964 72.7188 12.8516C73.3125 13.1068 73.8229 13.4766 74.25 13.9609C74.6823 14.4453 75.0156 15.0312 75.25 15.7188C75.4896 16.401 75.6094 17.1771 75.6094 18.0469ZM73.2422 18.5859V18.0312C73.2422 17.4271 73.1875 16.8958 73.0781 16.4375C72.9688 15.9792 72.8073 15.5938 72.5938 15.2812C72.3802 14.9688 72.1198 14.7344 71.8125 14.5781C71.5052 14.4167 71.1536 14.3359 70.7578 14.3359C70.362 14.3359 70.0104 14.4167 69.7031 14.5781C69.401 14.7344 69.1432 14.9688 68.9297 15.2812C68.7214 15.5938 68.5625 15.9792 68.4531 16.4375C68.3438 16.8958 68.2891 17.4271 68.2891 18.0312V18.5859C68.2891 19.1849 68.3438 19.7161 68.4531 20.1797C68.5625 20.638 68.724 21.026 68.9375 21.3438C69.151 21.6562 69.4115 21.8932 69.7188 22.0547C70.026 22.2161 70.3776 22.2969 70.7734 22.2969C71.1693 22.2969 71.5208 22.2161 71.8281 22.0547C72.1354 21.8932 72.3932 21.6562 72.6016 21.3438C72.8099 21.026 72.9688 20.638 73.0781 20.1797C73.1875 19.7161 73.2422 19.1849 73.2422 18.5859ZM81.75 19.0078H78.8281L78.8125 17.3984H81.2656C81.6979 17.3984 82.0521 17.3438 82.3281 17.2344C82.6042 17.1198 82.8099 16.9557 82.9453 16.7422C83.0859 16.5234 83.1562 16.2578 83.1562 15.9453C83.1562 15.5911 83.0885 15.3047 82.9531 15.0859C82.8229 14.8672 82.6172 14.7083 82.3359 14.6094C82.0599 14.5104 81.7031 14.4609 81.2656 14.4609H79.6406V24H77.2969V12.625H81.2656C81.9271 12.625 82.5182 12.6875 83.0391 12.8125C83.5651 12.9375 84.0104 13.1276 84.375 13.3828C84.7396 13.638 85.0182 13.9609 85.2109 14.3516C85.4036 14.737 85.5 15.1953 85.5 15.7266C85.5 16.1953 85.3932 16.6276 85.1797 17.0234C84.9714 17.4193 84.6406 17.7422 84.1875 17.9922C83.7396 18.2422 83.1536 18.3802 82.4297 18.4062L81.75 19.0078ZM81.6484 24H78.1875L79.1016 22.1719H81.6484C82.0599 22.1719 82.3958 22.1068 82.6562 21.9766C82.9167 21.8411 83.1094 21.6589 83.2344 21.4297C83.3594 21.2005 83.4219 20.9375 83.4219 20.6406C83.4219 20.3073 83.3646 20.0182 83.25 19.7734C83.1406 19.5286 82.9635 19.3411 82.7188 19.2109C82.474 19.0755 82.151 19.0078 81.75 19.0078H79.4922L79.5078 17.3984H82.3203L82.8594 18.0312C83.5521 18.0208 84.1094 18.1432 84.5312 18.3984C84.9583 18.6484 85.2682 18.974 85.4609 19.375C85.6589 19.776 85.7578 20.2057 85.7578 20.6641C85.7578 21.3932 85.599 22.0078 85.2812 22.5078C84.9635 23.0026 84.4974 23.375 83.8828 23.625C83.2734 23.875 82.5286 24 81.6484 24ZM96.8594 18.0469V18.5859C96.8594 19.4505 96.7422 20.2266 96.5078 20.9141C96.2734 21.6016 95.9427 22.1875 95.5156 22.6719C95.0885 23.151 94.5781 23.5182 93.9844 23.7734C93.3958 24.0286 92.7422 24.1562 92.0234 24.1562C91.3099 24.1562 90.6562 24.0286 90.0625 23.7734C89.474 23.5182 88.9635 23.151 88.5312 22.6719C88.099 22.1875 87.763 21.6016 87.5234 20.9141C87.2891 20.2266 87.1719 19.4505 87.1719 18.5859V18.0469C87.1719 17.1771 87.2891 16.401 87.5234 15.7188C87.7578 15.0312 88.0885 14.4453 88.5156 13.9609C88.9479 13.4766 89.4583 13.1068 90.0469 12.8516C90.6406 12.5964 91.2943 12.4688 92.0078 12.4688C92.7266 12.4688 93.3802 12.5964 93.9688 12.8516C94.5625 13.1068 95.0729 13.4766 95.5 13.9609C95.9323 14.4453 96.2656 15.0312 96.5 15.7188C96.7396 16.401 96.8594 17.1771 96.8594 18.0469ZM94.4922 18.5859V18.0312C94.4922 17.4271 94.4375 16.8958 94.3281 16.4375C94.2188 15.9792 94.0573 15.5938 93.8438 15.2812C93.6302 14.9688 93.3698 14.7344 93.0625 14.5781C92.7552 14.4167 92.4036 14.3359 92.0078 14.3359C91.612 14.3359 91.2604 14.4167 90.9531 14.5781C90.651 14.7344 90.3932 14.9688 90.1797 15.2812C89.9714 15.5938 89.8125 15.9792 89.7031 16.4375C89.5938 16.8958 89.5391 17.4271 89.5391 18.0312V18.5859C89.5391 19.1849 89.5938 19.7161 89.7031 20.1797C89.8125 20.638 89.974 21.026 90.1875 21.3438C90.401 21.6562 90.6615 21.8932 90.9688 22.0547C91.276 22.2161 91.6276 22.2969 92.0234 22.2969C92.4193 22.2969 92.7708 22.2161 93.0781 22.0547C93.3854 21.8932 93.6432 21.6562 93.8516 21.3438C94.0599 21.026 94.2188 20.638 94.3281 20.1797C94.4375 19.7161 94.4922 19.1849 94.4922 18.5859ZM105.859 22.1719V24H100.133V22.1719H105.859ZM100.891 12.625V24H98.5469V12.625H100.891ZM111.984 14.5703L108.891 24H106.398L110.625 12.625H112.211L111.984 14.5703ZM114.555 24L111.453 14.5703L111.203 12.625H112.805L117.055 24H114.555ZM114.414 19.7656V21.6016H108.406V19.7656H114.414ZM124.25 12.625H126.586V20.1406C126.586 21.0156 126.398 21.7526 126.023 22.3516C125.654 22.9505 125.141 23.401 124.484 23.7031C123.833 24.0052 123.083 24.1562 122.234 24.1562C121.385 24.1562 120.63 24.0052 119.969 23.7031C119.312 23.401 118.797 22.9505 118.422 22.3516C118.052 21.7526 117.867 21.0156 117.867 20.1406V12.625H120.211V20.1406C120.211 20.651 120.292 21.0677 120.453 21.3906C120.615 21.7135 120.846 21.9505 121.148 22.1016C121.456 22.2526 121.818 22.3281 122.234 22.3281C122.661 22.3281 123.023 22.2526 123.32 22.1016C123.622 21.9505 123.852 21.7135 124.008 21.3906C124.169 21.0677 124.25 20.651 124.25 20.1406V12.625ZM137.773 12.625V24H135.43L130.859 16.375V24H128.516V12.625H130.859L135.438 20.2578V12.625H137.773ZM146.406 20.2266H148.742C148.695 20.9922 148.484 21.6719 148.109 22.2656C147.74 22.8594 147.221 23.3229 146.555 23.6562C145.893 23.9896 145.096 24.1562 144.164 24.1562C143.435 24.1562 142.781 24.0312 142.203 23.7812C141.625 23.526 141.13 23.1615 140.719 22.6875C140.312 22.2135 140.003 21.6406 139.789 20.9688C139.576 20.2969 139.469 19.5443 139.469 18.7109V17.9219C139.469 17.0885 139.578 16.3359 139.797 15.6641C140.021 14.987 140.339 14.4115 140.75 13.9375C141.167 13.4635 141.664 13.099 142.242 12.8438C142.82 12.5885 143.466 12.4609 144.18 12.4609C145.128 12.4609 145.927 12.6328 146.578 12.9766C147.234 13.3203 147.742 13.7943 148.102 14.3984C148.466 15.0026 148.685 15.6901 148.758 16.4609H146.414C146.388 16.0026 146.297 15.6146 146.141 15.2969C145.984 14.974 145.747 14.7318 145.43 14.5703C145.117 14.4036 144.701 14.3203 144.18 14.3203C143.789 14.3203 143.448 14.3932 143.156 14.5391C142.865 14.6849 142.62 14.9062 142.422 15.2031C142.224 15.5 142.076 15.875 141.977 16.3281C141.883 16.776 141.836 17.3021 141.836 17.9062V18.7109C141.836 19.2995 141.88 19.8177 141.969 20.2656C142.057 20.7083 142.193 21.0833 142.375 21.3906C142.562 21.6927 142.802 21.9219 143.094 22.0781C143.391 22.2292 143.747 22.3047 144.164 22.3047C144.654 22.3047 145.057 22.2266 145.375 22.0703C145.693 21.9141 145.935 21.6823 146.102 21.375C146.273 21.0677 146.375 20.6849 146.406 20.2266ZM157.867 17.2578V19.0859H151.93V17.2578H157.867ZM152.625 12.625V24H150.281V12.625H152.625ZM159.539 12.625V24H157.203V12.625H159.539Z" fill="#413E45"/>
<path d="M21.7478 18.0886L20.1691 18.1164C19.6497 18.122 19.101 18.3169 18.4367 18.5811C17.7724 18.8452 17.0455 19.1941 16.4042 19.566C15.4238 20.1347 14.1303 21.3691 13.001 22.4932C11.8716 23.6174 10.9542 24.6166 10.9542 24.6166L10.2334 25.4018L13.1381 25.9477L13.3625 25.7433L21.7478 18.0886ZM17.4677 20.3723L12.7646 24.6678L12.6015 24.6354C12.9626 24.2508 13.1669 24.0185 13.8612 23.3274C14.9685 22.2253 16.3301 20.9901 17.0187 20.5908C17.158 20.51 17.3186 20.4511 17.4677 20.3724V20.3723ZM10.6352 10.1806C9.71922 10.2255 8.81143 10.3624 7.9764 10.701C6.42801 11.3291 5.58854 12.2127 4.82366 12.9243C3.35335 14.2921 0.711362 17.6542 0.711362 17.6542L0 18.5486L8.96197 21.8475L9.32825 21.2783L16.3381 10.4176L14.9342 10.3083C14.9342 10.3083 13.9372 10.2304 13.3413 10.2108C12.4764 10.1821 11.5512 10.1357 10.6352 10.1806ZM13.2822 11.8765C13.3166 11.8776 13.3474 11.8803 13.386 11.8822L8.26695 19.8134L2.80521 17.8016C3.53566 16.9017 5.0408 15.0152 5.98864 14.1333C6.80879 13.3704 7.37824 12.7443 8.62146 12.24C9.74302 11.7851 11.54 11.8176 13.282 11.8752L13.2822 11.8765ZM28.9892 23.7106L17.2716 30.1296L17.5812 30.8218L20.7576 37.933L21.625 37.2012C21.625 37.2012 24.6283 34.6716 25.9948 33.4052C26.8294 32.6317 27.8142 31.5884 28.3984 30.3944C29.2224 28.7102 29.5332 27.6963 29.5754 25.9176C29.5926 25.1813 29.3436 24.5958 29.3436 24.5958L28.9892 23.7106ZM27.7721 26.2847C27.706 27.5576 27.5783 28.2298 26.8716 29.6742C26.4535 30.5287 25.5853 31.4944 24.8321 32.1925C23.8052 33.1441 22.1986 34.5004 21.3839 35.1917L19.4412 30.8474L27.7721 26.2847ZM30.8799 0.0911929C28.4922 0.228928 25.8906 0.188353 23.4093 1.05295C21.9506 1.56124 20.6346 2.40951 19.5239 3.40862C17.9059 4.86401 16.9059 6.71231 15.8016 8.27794C12.9938 12.2585 7.89369 20.3955 7.89369 20.3955L7.54393 20.9531L18.1886 31.5048L18.7393 31.2307C18.7393 31.2307 24.016 28.6023 28.6229 25.8549C30.3673 24.8146 32.0152 23.7598 33.2693 22.8C34.8746 21.5714 36.5482 20.1949 37.7101 18.372C38.6004 16.9754 39.0025 15.399 39.3172 13.9302C39.9184 11.1248 40.0523 8.24728 39.9836 5.4321C39.9458 3.8785 39.7409 2.44809 39.3999 0.83225L39.2746 0.246832L38.6695 0.174742C37.006 -0.0185408 33.4797 -0.0589586 30.8798 0.0911353L30.8799 0.0911929ZM30.9792 1.75457C33.2498 1.62381 36.2224 1.69114 37.8236 1.82171C38.0653 3.08612 38.2594 4.25509 38.2891 5.47373C38.3557 8.20999 38.2237 10.9578 37.6605 13.5862C37.3568 15.0034 36.9784 16.3865 36.2755 17.4891C35.3025 19.0157 33.7947 20.2852 32.2271 21.4849C31.0671 22.3727 29.4575 23.4086 27.7437 24.4306C23.4654 26.9822 19.0327 29.1926 18.5077 29.4556L9.69459 20.7183C10.1263 20.0311 14.5804 12.9305 17.1936 9.2256C18.3712 7.55606 19.3312 5.83964 20.6677 4.63738C21.6372 3.76534 22.7775 3.03871 23.9765 2.62092C26.0795 1.88813 28.5115 1.89668 30.9792 1.75434V1.75457ZM8.4609 19.8844L5.38852 25.8177L13.8873 33.684L19.7934 30.6987L18.9473 29.8903L8.4609 19.8844ZM8.92887 22.6513L16.9219 30.2782L14.1756 31.6651L7.47305 25.4623L8.92887 22.6513ZM28.6844 5.67377C25.8701 5.67377 23.5748 7.92994 23.5748 10.6964C23.5748 13.4628 25.8701 15.7213 28.6844 15.7213C31.4988 15.7213 33.7964 13.4628 33.7964 10.6964C33.7964 7.92994 31.4988 5.67377 28.6844 5.67377ZM28.6844 7.10014C30.714 7.10014 32.3452 8.70134 32.3452 10.6964C32.3452 12.6914 30.714 14.295 28.6844 14.295C26.6548 14.295 25.0259 12.6914 25.0259 10.6964C25.0259 8.70134 26.6548 7.10014 28.6844 7.10014ZM4.95546 28.1437C4.73374 28.1003 4.4651 28.0933 4.20631 28.2739L4.18634 28.289C3.36752 28.9257 2.47449 29.7785 1.64333 30.6841L1.63952 30.6879L1.63565 30.6916C1.27959 31.1025 1.38369 31.7023 1.77981 32.0948C2.19724 32.5085 2.77742 32.5675 3.20494 32.2365L3.2088 32.2327L3.21454 32.229C4.06847 31.5203 4.86627 30.8435 5.75281 29.8361L5.75469 29.8342L5.75662 29.8305C6.00784 29.5351 5.94532 29.2366 5.88197 29.0173C5.81882 28.7987 5.72668 28.6159 5.55107 28.4459C5.3741 28.2747 5.17489 28.1896 4.95317 28.1462L4.95546 28.1437ZM4.771 29.0613C4.73415 29.0836 4.72226 29.0783 4.76526 29.087C4.81459 29.0983 4.88044 29.1398 4.86912 29.1287C4.85376 29.1136 4.92186 29.2087 4.9424 29.2753C4.1386 30.1762 3.41596 30.801 2.59796 31.4799C2.67263 31.4203 2.5432 31.4856 2.47506 31.4198C2.36066 31.3067 2.43421 31.2556 2.38046 31.3179C3.17274 30.4556 4.02347 29.6468 4.77217 29.0621L4.771 29.0613ZM7.65435 30.978C7.39819 30.928 7.09368 30.9221 6.8106 31.1197L6.79906 31.1253L6.78758 31.1309C5.76833 31.9234 4.64988 32.9891 3.61117 34.1209L3.60736 34.1247L3.60543 34.1303C3.21115 34.5856 3.31698 35.2672 3.778 35.724C4.25738 36.1991 4.93089 36.2555 5.40164 35.8913L5.40738 35.8876L5.41125 35.8819C6.4816 34.9936 7.47467 34.1531 8.58051 32.8966L8.58244 32.8929L8.58438 32.891C8.854 32.574 8.79055 32.2383 8.71682 31.9827C8.64311 31.727 8.53116 31.5086 8.3339 31.3183C8.13618 31.1278 7.90399 31.0267 7.64855 30.9767L7.65435 30.978ZM7.3802 31.9025C7.34201 31.9293 7.38105 31.9044 7.46292 31.9222C7.54699 31.9391 7.6445 31.9965 7.65429 32.0058H7.65622C7.66006 32.0095 7.75182 32.1444 7.78158 32.2473C7.81114 32.3501 7.75296 32.3781 7.84068 32.2751C6.7883 33.4699 5.85564 34.2628 4.79666 35.1418C4.836 35.1099 4.60603 35.1807 4.47524 35.0513C4.29596 34.8737 4.36757 34.741 4.35241 34.7586C5.35379 33.6684 6.42982 32.644 7.37991 31.9034L7.3802 31.9025ZM10.4928 33.6937C10.271 33.6503 10.0023 33.6427 9.74356 33.8239L9.72359 33.8389C8.90476 34.4757 8.01182 35.3285 7.18063 36.2341L7.17677 36.2379L7.17296 36.2417C6.81684 36.6526 6.921 37.2523 7.31712 37.6449C7.73452 38.0585 8.31472 38.1175 8.74224 37.7866L8.74605 37.7828L8.75179 37.779C9.60574 37.0704 10.4035 36.3936 11.2901 35.3862L11.2921 35.3824L11.2939 35.3805C11.5451 35.0852 11.4803 34.7867 11.4168 34.5674C11.3536 34.3481 11.265 34.1641 11.0883 33.9936C10.9113 33.8221 10.7121 33.7396 10.4904 33.6963L10.4928 33.6937ZM10.3083 34.6113C10.2715 34.6336 10.2595 34.6283 10.3025 34.6368C10.3518 34.6482 10.4177 34.687 10.4064 34.6764V34.6783C10.391 34.6633 10.4592 34.7583 10.4797 34.8247C9.67595 35.7256 8.95318 36.3504 8.13521 37.0294C8.21007 36.9698 8.07842 37.0351 8.01009 36.9692C7.89569 36.856 7.9715 36.8051 7.91794 36.8671C8.7102 36.0048 9.56101 35.1961 10.3097 34.6113H10.3083Z" fill="url(#paint0_linear_1317_8684)"/>
</g>
<defs>
<linearGradient id="paint0_linear_1317_8684" x1="-8.56986" y1="16.0389" x2="19.2977" y2="-8.43287" gradientUnits="userSpaceOnUse">
<stop stop-color="#35B8FA"/>
<stop offset="1" stop-color="#AC2DFE"/>
</linearGradient>
<clipPath id="clip0_1317_8684">
<rect width="161" height="38" fill="white"/>
</clipPath>
</defs>
</svg>
