<svg width="162" height="40" viewBox="0 0 162 40" fill="none" xmlns="http://www.w3.org/2000/svg">
<path d="M21.7478 19.0407L20.1691 19.0699C19.6497 19.0758 19.101 19.2809 18.4367 19.559C17.7724 19.8371 17.0455 20.2043 16.4042 20.5958C15.4238 21.1944 14.1303 22.4938 13.001 23.6771C11.8716 24.8604 10.9542 25.9122 10.9542 25.9122L10.2334 26.7387L13.1381 27.3134L13.3625 27.0983L21.7478 19.0407ZM17.4677 21.4445L12.7646 25.9661L12.6015 25.932C12.9626 25.5272 13.1669 25.2827 13.8612 24.5552C14.9685 23.395 16.3301 22.0949 17.0187 21.6745C17.158 21.5895 17.3186 21.5275 17.4677 21.4446L17.4677 21.4445ZM10.6352 10.7164C9.71922 10.7637 8.81143 10.9077 7.9764 11.2642C6.42801 11.9254 5.58854 12.8555 4.82366 13.6045C3.35335 15.0443 0.711362 18.5834 0.711362 18.5834L0 19.5249L8.96197 22.9973L9.32825 22.3983L16.3381 10.9659L14.9342 10.8509C14.9342 10.8509 13.9372 10.7689 13.3413 10.7482C12.4764 10.718 11.5512 10.6691 10.6352 10.7164V10.7164ZM13.2822 12.5016C13.3166 12.5028 13.3474 12.5056 13.386 12.5076L8.26695 20.8563L2.80521 18.7385C3.53566 17.7913 5.0408 15.8054 5.98864 14.8772C6.80879 14.0741 7.37824 13.415 8.62146 12.8842C9.74302 12.4053 11.54 12.4396 13.282 12.5002L13.2822 12.5016ZM28.9892 24.9586L17.2716 31.7153L17.5812 32.444L20.7576 39.9295L21.625 39.1592C21.625 39.1592 24.6283 36.4964 25.9948 35.1634C26.8294 34.3492 27.8142 33.251 28.3984 31.9941C29.2224 30.2213 29.5332 29.154 29.5754 27.2817C29.5926 26.5066 29.3436 25.8903 29.3436 25.8903L28.9892 24.9586ZM27.7721 27.6681C27.706 29.008 27.5783 29.7156 26.8716 31.236C26.4535 32.1355 25.5853 33.152 24.8321 33.8868C23.8052 34.8886 22.1986 36.3162 21.3839 37.0439L19.4412 32.4709L27.7721 27.6681ZM30.8799 0.0959925C28.4922 0.240977 25.8906 0.198266 23.4093 1.10837C21.9506 1.64341 20.6346 2.53632 19.5239 3.58802C17.9059 5.12001 16.9059 7.06559 15.8016 8.71363C12.9938 12.9037 7.89369 21.469 7.89369 21.469L7.54393 22.0559L18.1886 33.163L18.7393 32.8745C18.7393 32.8745 24.016 30.1077 28.6229 27.2157C30.3673 26.1206 32.0152 25.0104 33.2693 24C34.8746 22.7068 36.5482 21.2578 37.7101 19.339C38.6004 17.8688 39.0025 16.2095 39.3172 14.6634C39.9184 11.7103 40.0523 8.68135 39.9837 5.718C39.9458 4.08263 39.7409 2.57694 39.3999 0.876053L39.2746 0.259823L38.6695 0.183939C37.006 -0.0195166 33.4797 -0.0620617 30.8798 0.0959319L30.8799 0.0959925ZM30.9792 1.84692C33.2498 1.70928 36.2224 1.78015 37.8236 1.91759C38.0653 3.24855 38.2594 4.47905 38.2891 5.76182C38.3557 8.64209 38.2237 11.5345 37.6605 14.3013C37.3568 15.793 36.9784 17.2489 36.2755 18.4096C35.3025 20.0165 33.7946 21.3528 32.2271 22.6157C31.0671 23.5502 29.4575 24.6406 27.7437 25.7164C23.4654 28.4023 19.0327 30.729 18.5077 31.0059L9.69459 21.8087C10.1263 21.0853 14.5804 13.611 17.1936 9.71116C18.3712 7.95374 19.3312 6.14699 20.6677 4.88145C21.6372 3.96352 22.7775 3.19864 23.9765 2.75886C26.0795 1.98751 28.5115 1.9965 30.9792 1.84667V1.84692ZM8.4609 20.931L5.38852 27.1766L13.8873 35.4568L19.7934 32.3144L18.9473 31.4634L8.4609 20.931ZM8.92887 23.8435L16.9219 31.8718L14.1756 33.3317L7.47305 26.8024L8.92887 23.8435ZM28.6844 5.97238C25.8701 5.97238 23.5748 8.34731 23.5748 11.2593C23.5748 14.1714 25.8701 16.5488 28.6844 16.5488C31.4988 16.5488 33.7964 14.1714 33.7964 11.2593C33.7964 8.34731 31.4988 5.97238 28.6844 5.97238ZM28.6844 7.47383C30.714 7.47383 32.3452 9.1593 32.3452 11.2593C32.3452 13.3594 30.714 15.0473 28.6844 15.0473C26.6548 15.0473 25.0259 13.3594 25.0259 11.2593C25.0259 9.1593 26.6548 7.47383 28.6844 7.47383ZM4.95546 29.6249C4.73374 29.5793 4.4651 29.5719 4.20631 29.762L4.18634 29.7779C3.36752 30.4481 2.47449 31.3458 1.64333 32.299L1.63952 32.303L1.63565 32.307C1.27959 32.7395 1.38369 33.3709 1.77981 33.784C2.19724 34.2195 2.77742 34.2816 3.20494 33.9332L3.2088 33.9292L3.21454 33.9253C4.06847 33.1793 4.86627 32.4668 5.75281 31.4065L5.75469 31.4045L5.75662 31.4005C6.00784 31.0896 5.94532 30.7754 5.88197 30.5446C5.81882 30.3144 5.72668 30.122 5.55107 29.943C5.3741 29.7629 5.17489 29.6732 4.95317 29.6276L4.95546 29.6249ZM4.771 30.5909C4.73414 30.6143 4.72226 30.6087 4.76526 30.6179C4.81459 30.6298 4.88044 30.6735 4.86912 30.6617C4.85376 30.6459 4.92186 30.746 4.9424 30.8161C4.1386 31.7644 3.41596 32.4221 2.59796 33.1368C2.67263 33.074 2.5432 33.1428 2.47506 33.0734C2.36066 32.9545 2.43421 32.9006 2.38046 32.9662C3.17274 32.0585 4.02347 31.2072 4.77217 30.5917L4.771 30.5909ZM7.65435 32.6084C7.39819 32.5557 7.09368 32.5496 6.8106 32.7575L6.79906 32.7635L6.78758 32.7694C5.76833 33.6035 4.64988 34.7254 3.61117 35.9167L3.60736 35.9207L3.60543 35.9266C3.21115 36.4059 3.31698 37.1234 3.778 37.6042C4.25738 38.1043 4.93089 38.1637 5.40164 37.7803L5.40738 37.7764L5.41125 37.7704C6.4816 36.8354 7.47467 35.9506 8.58051 34.628L8.58244 34.6241L8.58438 34.6221C8.854 34.2884 8.79055 33.935 8.71682 33.666C8.64311 33.3969 8.53116 33.1669 8.3339 32.9666C8.13618 32.7661 7.90399 32.6597 7.64855 32.6071L7.65435 32.6084ZM7.3802 33.5816C7.34201 33.6098 7.38105 33.5836 7.46292 33.6023C7.54699 33.6201 7.6445 33.6805 7.65429 33.6903H7.65622C7.66006 33.6942 7.75182 33.8362 7.78158 33.9445C7.81114 34.0528 7.75296 34.0822 7.84068 33.9738C6.7883 35.2315 5.85564 36.0662 4.79666 36.9914C4.836 36.9578 4.60603 37.0323 4.47524 36.8961C4.29596 36.7092 4.36757 36.5695 4.35241 36.588C5.35379 35.4404 6.42982 34.3621 7.37991 33.5825L7.3802 33.5816ZM10.4928 35.467C10.271 35.4213 10.0023 35.4134 9.74356 35.6041L9.72359 35.6199C8.90477 36.2902 8.01182 37.1879 7.18063 38.1412L7.17677 38.1452L7.17296 38.1492C6.81684 38.5817 6.921 39.213 7.31712 39.6262C7.73452 40.0616 8.31472 40.1237 8.74224 39.7754L8.74605 39.7714L8.75179 39.7674C9.60574 39.0215 10.4035 38.309 11.2901 37.2487L11.2921 37.2447L11.2939 37.2427C11.5451 36.9317 11.4803 36.6176 11.4168 36.3868C11.3536 36.1559 11.265 35.9622 11.0883 35.7827C10.9113 35.6022 10.7121 35.5154 10.4904 35.4697L10.4928 35.467ZM10.3083 36.433C10.2715 36.4564 10.2595 36.4509 10.3025 36.4598C10.3518 36.4717 10.4177 36.5126 10.4064 36.5015V36.5035C10.391 36.4876 10.4592 36.5877 10.4797 36.6576C9.67595 37.6059 8.95318 38.2636 8.13521 38.9783C8.21007 38.9156 8.07842 38.9843 8.01009 38.915C7.89569 38.7958 7.9715 38.7422 7.91794 38.8075C8.7102 37.8998 9.56101 37.0485 10.3097 36.433H10.3083Z" fill="url(#paint0_linear_1317_8681)"/>
<path d="M57.0156 14.125H61.2578C62.1276 14.125 62.875 14.2552 63.5 14.5156C64.1302 14.776 64.6146 15.1615 64.9531 15.6719C65.2917 16.1823 65.4609 16.8099 65.4609 17.5547C65.4609 18.1641 65.3568 18.6875 65.1484 19.125C64.9453 19.5573 64.6562 19.9193 64.2812 20.2109C63.9115 20.4974 63.4766 20.7266 62.9766 20.8984L62.2344 21.2891H58.5469L58.5312 19.4609H61.2734C61.6849 19.4609 62.026 19.388 62.2969 19.2422C62.5677 19.0964 62.7708 18.8932 62.9062 18.6328C63.0469 18.3724 63.1172 18.0703 63.1172 17.7266C63.1172 17.362 63.0495 17.0469 62.9141 16.7812C62.7786 16.5156 62.5729 16.3125 62.2969 16.1719C62.0208 16.0312 61.6745 15.9609 61.2578 15.9609H59.3594V25.5H57.0156V14.125ZM63.375 25.5L60.7812 20.4297L63.2578 20.4141L65.8828 25.3906V25.5H63.375ZM76.6094 19.5469V20.0859C76.6094 20.9505 76.4922 21.7266 76.2578 22.4141C76.0234 23.1016 75.6927 23.6875 75.2656 24.1719C74.8385 24.651 74.3281 25.0182 73.7344 25.2734C73.1458 25.5286 72.4922 25.6562 71.7734 25.6562C71.0599 25.6562 70.4062 25.5286 69.8125 25.2734C69.224 25.0182 68.7135 24.651 68.2812 24.1719C67.849 23.6875 67.513 23.1016 67.2734 22.4141C67.0391 21.7266 66.9219 20.9505 66.9219 20.0859V19.5469C66.9219 18.6771 67.0391 17.901 67.2734 17.2188C67.5078 16.5312 67.8385 15.9453 68.2656 15.4609C68.6979 14.9766 69.2083 14.6068 69.7969 14.3516C70.3906 14.0964 71.0443 13.9688 71.7578 13.9688C72.4766 13.9688 73.1302 14.0964 73.7188 14.3516C74.3125 14.6068 74.8229 14.9766 75.25 15.4609C75.6823 15.9453 76.0156 16.5312 76.25 17.2188C76.4896 17.901 76.6094 18.6771 76.6094 19.5469ZM74.2422 20.0859V19.5312C74.2422 18.9271 74.1875 18.3958 74.0781 17.9375C73.9688 17.4792 73.8073 17.0938 73.5938 16.7812C73.3802 16.4688 73.1198 16.2344 72.8125 16.0781C72.5052 15.9167 72.1536 15.8359 71.7578 15.8359C71.362 15.8359 71.0104 15.9167 70.7031 16.0781C70.401 16.2344 70.1432 16.4688 69.9297 16.7812C69.7214 17.0938 69.5625 17.4792 69.4531 17.9375C69.3438 18.3958 69.2891 18.9271 69.2891 19.5312V20.0859C69.2891 20.6849 69.3438 21.2161 69.4531 21.6797C69.5625 22.138 69.724 22.526 69.9375 22.8438C70.151 23.1562 70.4115 23.3932 70.7188 23.5547C71.026 23.7161 71.3776 23.7969 71.7734 23.7969C72.1693 23.7969 72.5208 23.7161 72.8281 23.5547C73.1354 23.3932 73.3932 23.1562 73.6016 22.8438C73.8099 22.526 73.9688 22.138 74.0781 21.6797C74.1875 21.2161 74.2422 20.6849 74.2422 20.0859ZM82.75 20.5078H79.8281L79.8125 18.8984H82.2656C82.6979 18.8984 83.0521 18.8438 83.3281 18.7344C83.6042 18.6198 83.8099 18.4557 83.9453 18.2422C84.0859 18.0234 84.1562 17.7578 84.1562 17.4453C84.1562 17.0911 84.0885 16.8047 83.9531 16.5859C83.8229 16.3672 83.6172 16.2083 83.3359 16.1094C83.0599 16.0104 82.7031 15.9609 82.2656 15.9609H80.6406V25.5H78.2969V14.125H82.2656C82.9271 14.125 83.5182 14.1875 84.0391 14.3125C84.5651 14.4375 85.0104 14.6276 85.375 14.8828C85.7396 15.138 86.0182 15.4609 86.2109 15.8516C86.4036 16.237 86.5 16.6953 86.5 17.2266C86.5 17.6953 86.3932 18.1276 86.1797 18.5234C85.9714 18.9193 85.6406 19.2422 85.1875 19.4922C84.7396 19.7422 84.1536 19.8802 83.4297 19.9062L82.75 20.5078ZM82.6484 25.5H79.1875L80.1016 23.6719H82.6484C83.0599 23.6719 83.3958 23.6068 83.6562 23.4766C83.9167 23.3411 84.1094 23.1589 84.2344 22.9297C84.3594 22.7005 84.4219 22.4375 84.4219 22.1406C84.4219 21.8073 84.3646 21.5182 84.25 21.2734C84.1406 21.0286 83.9635 20.8411 83.7188 20.7109C83.474 20.5755 83.151 20.5078 82.75 20.5078H80.4922L80.5078 18.8984H83.3203L83.8594 19.5312C84.5521 19.5208 85.1094 19.6432 85.5312 19.8984C85.9583 20.1484 86.2682 20.474 86.4609 20.875C86.6589 21.276 86.7578 21.7057 86.7578 22.1641C86.7578 22.8932 86.599 23.5078 86.2812 24.0078C85.9635 24.5026 85.4974 24.875 84.8828 25.125C84.2734 25.375 83.5286 25.5 82.6484 25.5ZM97.8594 19.5469V20.0859C97.8594 20.9505 97.7422 21.7266 97.5078 22.4141C97.2734 23.1016 96.9427 23.6875 96.5156 24.1719C96.0885 24.651 95.5781 25.0182 94.9844 25.2734C94.3958 25.5286 93.7422 25.6562 93.0234 25.6562C92.3099 25.6562 91.6562 25.5286 91.0625 25.2734C90.474 25.0182 89.9635 24.651 89.5312 24.1719C89.099 23.6875 88.763 23.1016 88.5234 22.4141C88.2891 21.7266 88.1719 20.9505 88.1719 20.0859V19.5469C88.1719 18.6771 88.2891 17.901 88.5234 17.2188C88.7578 16.5312 89.0885 15.9453 89.5156 15.4609C89.9479 14.9766 90.4583 14.6068 91.0469 14.3516C91.6406 14.0964 92.2943 13.9688 93.0078 13.9688C93.7266 13.9688 94.3802 14.0964 94.9688 14.3516C95.5625 14.6068 96.0729 14.9766 96.5 15.4609C96.9323 15.9453 97.2656 16.5312 97.5 17.2188C97.7396 17.901 97.8594 18.6771 97.8594 19.5469ZM95.4922 20.0859V19.5312C95.4922 18.9271 95.4375 18.3958 95.3281 17.9375C95.2188 17.4792 95.0573 17.0938 94.8438 16.7812C94.6302 16.4688 94.3698 16.2344 94.0625 16.0781C93.7552 15.9167 93.4036 15.8359 93.0078 15.8359C92.612 15.8359 92.2604 15.9167 91.9531 16.0781C91.651 16.2344 91.3932 16.4688 91.1797 16.7812C90.9714 17.0938 90.8125 17.4792 90.7031 17.9375C90.5938 18.3958 90.5391 18.9271 90.5391 19.5312V20.0859C90.5391 20.6849 90.5938 21.2161 90.7031 21.6797C90.8125 22.138 90.974 22.526 91.1875 22.8438C91.401 23.1562 91.6615 23.3932 91.9688 23.5547C92.276 23.7161 92.6276 23.7969 93.0234 23.7969C93.4193 23.7969 93.7708 23.7161 94.0781 23.5547C94.3854 23.3932 94.6432 23.1562 94.8516 22.8438C95.0599 22.526 95.2188 22.138 95.3281 21.6797C95.4375 21.2161 95.4922 20.6849 95.4922 20.0859ZM106.859 23.6719V25.5H101.133V23.6719H106.859ZM101.891 14.125V25.5H99.5469V14.125H101.891ZM112.984 16.0703L109.891 25.5H107.398L111.625 14.125H113.211L112.984 16.0703ZM115.555 25.5L112.453 16.0703L112.203 14.125H113.805L118.055 25.5H115.555ZM115.414 21.2656V23.1016H109.406V21.2656H115.414ZM125.25 14.125H127.586V21.6406C127.586 22.5156 127.398 23.2526 127.023 23.8516C126.654 24.4505 126.141 24.901 125.484 25.2031C124.833 25.5052 124.083 25.6562 123.234 25.6562C122.385 25.6562 121.63 25.5052 120.969 25.2031C120.312 24.901 119.797 24.4505 119.422 23.8516C119.052 23.2526 118.867 22.5156 118.867 21.6406V14.125H121.211V21.6406C121.211 22.151 121.292 22.5677 121.453 22.8906C121.615 23.2135 121.846 23.4505 122.148 23.6016C122.456 23.7526 122.818 23.8281 123.234 23.8281C123.661 23.8281 124.023 23.7526 124.32 23.6016C124.622 23.4505 124.852 23.2135 125.008 22.8906C125.169 22.5677 125.25 22.151 125.25 21.6406V14.125ZM138.773 14.125V25.5H136.43L131.859 17.875V25.5H129.516V14.125H131.859L136.438 21.7578V14.125H138.773ZM147.406 21.7266H149.742C149.695 22.4922 149.484 23.1719 149.109 23.7656C148.74 24.3594 148.221 24.8229 147.555 25.1562C146.893 25.4896 146.096 25.6562 145.164 25.6562C144.435 25.6562 143.781 25.5312 143.203 25.2812C142.625 25.026 142.13 24.6615 141.719 24.1875C141.312 23.7135 141.003 23.1406 140.789 22.4688C140.576 21.7969 140.469 21.0443 140.469 20.2109V19.4219C140.469 18.5885 140.578 17.8359 140.797 17.1641C141.021 16.487 141.339 15.9115 141.75 15.4375C142.167 14.9635 142.664 14.599 143.242 14.3438C143.82 14.0885 144.466 13.9609 145.18 13.9609C146.128 13.9609 146.927 14.1328 147.578 14.4766C148.234 14.8203 148.742 15.2943 149.102 15.8984C149.466 16.5026 149.685 17.1901 149.758 17.9609H147.414C147.388 17.5026 147.297 17.1146 147.141 16.7969C146.984 16.474 146.747 16.2318 146.43 16.0703C146.117 15.9036 145.701 15.8203 145.18 15.8203C144.789 15.8203 144.448 15.8932 144.156 16.0391C143.865 16.1849 143.62 16.4062 143.422 16.7031C143.224 17 143.076 17.375 142.977 17.8281C142.883 18.276 142.836 18.8021 142.836 19.4062V20.2109C142.836 20.7995 142.88 21.3177 142.969 21.7656C143.057 22.2083 143.193 22.5833 143.375 22.8906C143.562 23.1927 143.802 23.4219 144.094 23.5781C144.391 23.7292 144.747 23.8047 145.164 23.8047C145.654 23.8047 146.057 23.7266 146.375 23.5703C146.693 23.4141 146.935 23.1823 147.102 22.875C147.273 22.5677 147.375 22.1849 147.406 21.7266ZM158.867 18.7578V20.5859H152.93V18.7578H158.867ZM153.625 14.125V25.5H151.281V14.125H153.625ZM160.539 14.125V25.5H158.203V14.125H160.539Z" fill="#EEEEEE"/>
<defs>
<linearGradient id="paint0_linear_1317_8681" x1="5.52513" y1="37.3913" x2="19.6923" y2="1.87976" gradientUnits="userSpaceOnUse">
<stop stop-color="#35B8FA"/>
<stop offset="1" stop-color="#AC2DFE"/>
</linearGradient>
</defs>
</svg>
