<svg width="212" height="138" viewBox="0 0 212 138" fill="none" xmlns="http://www.w3.org/2000/svg">
<path d="M109.496 38.0813L106.338 38.1398C105.299 38.1517 104.202 38.5618 102.873 39.118C101.545 39.6742 100.091 40.4086 98.8084 41.1916C96.8476 42.3888 94.2607 44.9875 92.002 47.3542C89.7431 49.7208 87.9085 51.8244 87.9085 51.8244L86.4669 53.4774L92.2761 54.6268L92.7249 54.1965L109.496 38.0813ZM100.935 42.8891L91.5292 51.9322L91.203 51.864C91.9251 51.0544 92.3338 50.5653 93.7224 49.1104C95.937 46.79 98.6602 44.1898 100.037 43.349C100.316 43.179 100.637 43.0551 100.935 42.8892L100.935 42.8891ZM87.2703 21.4329C85.4384 21.5274 83.6229 21.8155 81.9528 22.5285C78.856 23.8507 77.1771 25.7109 75.6473 27.209C72.7067 30.0887 67.4227 37.1667 67.4227 37.1667L66 39.0498L83.9239 45.9947L84.6565 44.7965L98.6761 21.9317L95.8684 21.7018C95.8684 21.7018 93.8743 21.5377 92.6825 21.4964C90.9528 21.436 89.1023 21.3382 87.2703 21.4328V21.4329ZM92.5644 25.0032C92.6331 25.0056 92.6949 25.0111 92.772 25.0151L82.5339 41.7125L71.6104 37.477C73.0713 35.5826 76.0816 31.6109 77.9773 29.7544C79.6176 28.1481 80.7565 26.83 83.2429 25.7684C85.486 24.8106 89.08 24.8792 92.5641 25.0004L92.5644 25.0032ZM123.978 49.9171L100.543 63.4307L101.162 64.888L107.515 79.859L109.25 78.3184C109.25 78.3184 115.257 72.9928 117.99 70.3267C119.659 68.6983 121.628 66.5019 122.797 63.9882C124.445 60.4426 125.066 58.308 125.151 54.5634C125.185 53.0133 124.687 51.7806 124.687 51.7806L123.978 49.9171ZM121.544 55.3362C121.412 58.0161 121.157 59.4313 119.743 62.4719C118.907 64.271 117.171 66.304 115.664 67.7737C113.61 69.7771 110.397 72.6324 108.768 74.0877L104.882 64.9418L121.544 55.3362ZM127.76 0.191985C122.984 0.481955 117.781 0.396533 112.819 2.21675C109.901 3.28681 107.269 5.07265 105.048 7.17604C101.812 10.24 99.8117 14.1312 97.6031 17.4273C91.9876 25.8074 81.7874 42.9379 81.7874 42.9379L81.0879 44.1117L102.377 66.3259L103.479 65.7489C103.479 65.7489 114.032 60.2155 123.246 54.4314C126.735 52.2412 130.03 50.0207 132.539 47.9999C135.749 45.4136 139.096 42.5157 141.42 38.678C143.201 35.7377 144.005 32.419 144.634 29.3267C145.837 23.4206 146.105 17.3627 145.967 11.436C145.892 8.16527 145.482 5.15388 144.8 1.75211L144.549 0.519647L143.339 0.367877C140.012 -0.0390332 132.959 -0.124123 127.76 0.191864L127.76 0.191985ZM127.958 3.69383C132.5 3.41856 138.445 3.5603 141.647 3.83517C142.131 6.49709 142.519 8.95809 142.578 11.5236C142.711 17.2842 142.447 23.0691 141.321 28.6025C140.714 31.586 139.957 34.4978 138.551 36.8192C136.605 40.033 133.589 42.7056 130.454 45.2313C128.134 47.1003 124.915 49.2812 121.487 51.4329C112.931 56.8046 104.065 61.458 103.015 62.0118L85.3892 43.6174C86.2526 42.1706 95.1607 27.222 100.387 19.4223C102.742 15.9075 104.662 12.294 107.335 9.7629C109.274 7.92704 111.555 6.39729 113.953 5.51773C118.159 3.97501 123.023 3.99301 127.958 3.69335V3.69383ZM82.9218 41.862L76.777 54.3531L93.7745 70.9137L105.587 64.6288L103.895 62.9269L82.9218 41.862ZM83.8577 47.6869L99.8437 63.7435L94.3511 66.6634L80.9461 53.6048L83.8577 47.6869ZM123.369 11.9448C117.74 11.9448 113.15 16.6946 113.15 22.5187C113.15 28.3428 117.74 33.0975 123.369 33.0975C128.998 33.0975 133.593 28.3428 133.593 22.5187C133.593 16.6946 128.998 11.9448 123.369 11.9448ZM123.369 14.9477C127.428 14.9477 130.69 18.3186 130.69 22.5187C130.69 26.7188 127.428 30.0947 123.369 30.0947C119.31 30.0947 116.052 26.7188 116.052 22.5187C116.052 18.3186 119.31 14.9477 123.369 14.9477ZM75.9109 59.2499C75.4675 59.1585 74.9302 59.1438 74.4126 59.5239L74.3727 59.5557C72.735 60.8962 70.949 62.6915 69.2867 64.598L69.279 64.606L69.2713 64.6139C68.5592 65.479 68.7674 66.7417 69.5596 67.5681C70.3945 68.4389 71.5548 68.5632 72.4099 67.8664L72.4176 67.8584L72.4291 67.8505C74.1369 66.3586 75.7325 64.9336 77.5056 62.8129L77.5094 62.8089L77.5132 62.801C78.0157 62.1792 77.8906 61.5508 77.7639 61.0892C77.6376 60.6289 77.4534 60.244 77.1021 59.886C76.7482 59.5258 76.3498 59.3465 75.9063 59.2552L75.9109 59.2499ZM75.542 61.1818C75.4683 61.2286 75.4445 61.2174 75.5305 61.2357C75.6292 61.2595 75.7609 61.3469 75.7382 61.3235C75.7075 61.2917 75.8437 61.492 75.8848 61.6322C74.2772 63.5289 72.8319 64.8442 71.1959 66.2736C71.3453 66.148 71.0864 66.2855 70.9501 66.1469C70.7213 65.9089 70.8684 65.8012 70.7609 65.9323C72.3455 64.117 74.0469 62.4143 75.5443 61.1833L75.542 61.1818ZM81.3087 65.2167C80.7964 65.1115 80.1874 65.0992 79.6212 65.5151L79.5981 65.527L79.5752 65.5388C77.5367 67.2071 75.2998 69.4507 73.2223 71.8334L73.2147 71.8414L73.2109 71.8533C72.4223 72.8118 72.634 74.2468 73.556 75.2084C74.5148 76.2085 75.8618 76.3274 76.8033 75.5607L76.8148 75.5528L76.8225 75.5408C78.9632 73.6707 80.9493 71.9012 83.161 69.2561L83.1649 69.2482L83.1688 69.2442C83.708 68.5768 83.5811 67.8701 83.4336 67.3319C83.2862 66.7938 83.0623 66.3338 82.6678 65.9332C82.2724 65.5323 81.808 65.3194 81.2971 65.2142L81.3087 65.2167ZM80.7604 67.1632C80.684 67.2196 80.7621 67.1672 80.9258 67.2045C81.094 67.2403 81.289 67.3611 81.3086 67.3806H81.3124C81.3201 67.3885 81.5036 67.6725 81.5632 67.8891C81.6223 68.1056 81.5059 68.1644 81.6814 67.9475C79.5766 70.463 77.7113 72.1323 75.5933 73.9828C75.672 73.9156 75.2121 74.0647 74.9505 73.7922C74.5919 73.4184 74.7351 73.139 74.7048 73.1759C76.7076 70.8809 78.8596 68.7241 80.7598 67.165L80.7604 67.1632ZM86.9855 70.934C86.5421 70.8427 86.0047 70.8268 85.4871 71.2081L85.4472 71.2399C83.8095 72.5804 82.0236 74.3758 80.3613 76.2823L80.3535 76.2903L80.3459 76.2983C79.6337 77.1634 79.842 78.4259 80.6342 79.2524C81.469 80.1231 82.6294 80.2474 83.4845 79.5507L83.4921 79.5428L83.5036 79.5348C85.2115 78.0429 86.8071 76.618 88.5802 74.4973L88.5841 74.4893L88.5879 74.4853C89.0902 73.8635 88.9606 73.2352 88.8335 72.7736C88.7072 72.3117 88.5299 71.9243 88.1765 71.5655C87.8226 71.2044 87.4241 71.0308 86.9807 70.9395L86.9855 70.934ZM86.6166 72.8659C86.5429 72.9128 86.519 72.9018 86.605 72.9196C86.7037 72.9435 86.8354 73.0253 86.8127 73.003V73.007C86.782 72.9753 86.9183 73.1754 86.9594 73.3152C85.3519 75.2119 83.9064 76.5272 82.2704 77.9566C82.4201 77.8311 82.1568 77.9686 82.0202 77.83C81.7914 77.5916 81.943 77.4844 81.8359 77.615C83.4204 75.7997 85.122 74.097 86.6194 72.8659H86.6166Z" fill="url(#paint0_linear_1317_8678)"/>
<path d="M2.03125 107.25H10.5156C12.2552 107.25 13.75 107.51 15 108.031C16.2604 108.552 17.2292 109.323 17.9062 110.344C18.5833 111.365 18.9219 112.62 18.9219 114.109C18.9219 115.328 18.7135 116.375 18.2969 117.25C17.8906 118.115 17.3125 118.839 16.5625 119.422C15.8229 119.995 14.9531 120.453 13.9531 120.797L12.4688 121.578H5.09375L5.0625 117.922H10.5469C11.3698 117.922 12.0521 117.776 12.5938 117.484C13.1354 117.193 13.5417 116.786 13.8125 116.266C14.0938 115.745 14.2344 115.141 14.2344 114.453C14.2344 113.724 14.099 113.094 13.8281 112.562C13.5573 112.031 13.1458 111.625 12.5938 111.344C12.0417 111.062 11.349 110.922 10.5156 110.922H6.71875V130H2.03125V107.25ZM14.75 130L9.5625 119.859L14.5156 119.828L19.7656 129.781V130H14.75ZM41.2188 118.094V119.172C41.2188 120.901 40.9844 122.453 40.5156 123.828C40.0469 125.203 39.3854 126.375 38.5312 127.344C37.6771 128.302 36.6562 129.036 35.4688 129.547C34.2917 130.057 32.9844 130.312 31.5469 130.312C30.1198 130.312 28.8125 130.057 27.625 129.547C26.4479 129.036 25.4271 128.302 24.5625 127.344C23.6979 126.375 23.026 125.203 22.5469 123.828C22.0781 122.453 21.8438 120.901 21.8438 119.172V118.094C21.8438 116.354 22.0781 114.802 22.5469 113.438C23.0156 112.062 23.6771 110.891 24.5312 109.922C25.3958 108.953 26.4167 108.214 27.5938 107.703C28.7812 107.193 30.0885 106.938 31.5156 106.938C32.9531 106.938 34.2604 107.193 35.4375 107.703C36.625 108.214 37.6458 108.953 38.5 109.922C39.3646 110.891 40.0312 112.062 40.5 113.438C40.9792 114.802 41.2188 116.354 41.2188 118.094ZM36.4844 119.172V118.062C36.4844 116.854 36.375 115.792 36.1562 114.875C35.9375 113.958 35.6146 113.188 35.1875 112.562C34.7604 111.938 34.2396 111.469 33.625 111.156C33.0104 110.833 32.3073 110.672 31.5156 110.672C30.724 110.672 30.0208 110.833 29.4062 111.156C28.8021 111.469 28.2865 111.938 27.8594 112.562C27.4427 113.188 27.125 113.958 26.9062 114.875C26.6875 115.792 26.5781 116.854 26.5781 118.062V119.172C26.5781 120.37 26.6875 121.432 26.9062 122.359C27.125 123.276 27.4479 124.052 27.875 124.688C28.3021 125.312 28.8229 125.786 29.4375 126.109C30.0521 126.432 30.7552 126.594 31.5469 126.594C32.3385 126.594 33.0417 126.432 33.6562 126.109C34.2708 125.786 34.7865 125.312 35.2031 124.688C35.6198 124.052 35.9375 123.276 36.1562 122.359C36.375 121.432 36.4844 120.37 36.4844 119.172ZM53.5 120.016H47.6562L47.625 116.797H52.5312C53.3958 116.797 54.1042 116.688 54.6562 116.469C55.2083 116.24 55.6198 115.911 55.8906 115.484C56.1719 115.047 56.3125 114.516 56.3125 113.891C56.3125 113.182 56.1771 112.609 55.9062 112.172C55.6458 111.734 55.2344 111.417 54.6719 111.219C54.1198 111.021 53.4062 110.922 52.5312 110.922H49.2812V130H44.5938V107.25H52.5312C53.8542 107.25 55.0365 107.375 56.0781 107.625C57.1302 107.875 58.0208 108.255 58.75 108.766C59.4792 109.276 60.0365 109.922 60.4219 110.703C60.8073 111.474 61 112.391 61 113.453C61 114.391 60.7865 115.255 60.3594 116.047C59.9427 116.839 59.2812 117.484 58.375 117.984C57.4792 118.484 56.3073 118.76 54.8594 118.812L53.5 120.016ZM53.2969 130H46.375L48.2031 126.344H53.2969C54.1198 126.344 54.7917 126.214 55.3125 125.953C55.8333 125.682 56.2188 125.318 56.4688 124.859C56.7188 124.401 56.8438 123.875 56.8438 123.281C56.8438 122.615 56.7292 122.036 56.5 121.547C56.2812 121.057 55.9271 120.682 55.4375 120.422C54.9479 120.151 54.3021 120.016 53.5 120.016H48.9844L49.0156 116.797H54.6406L55.7188 118.062C57.1042 118.042 58.2188 118.286 59.0625 118.797C59.9167 119.297 60.5365 119.948 60.9219 120.75C61.3177 121.552 61.5156 122.411 61.5156 123.328C61.5156 124.786 61.1979 126.016 60.5625 127.016C59.9271 128.005 58.9948 128.75 57.7656 129.25C56.5469 129.75 55.0573 130 53.2969 130ZM83.7188 118.094V119.172C83.7188 120.901 83.4844 122.453 83.0156 123.828C82.5469 125.203 81.8854 126.375 81.0312 127.344C80.1771 128.302 79.1562 129.036 77.9688 129.547C76.7917 130.057 75.4844 130.312 74.0469 130.312C72.6198 130.312 71.3125 130.057 70.125 129.547C68.9479 129.036 67.9271 128.302 67.0625 127.344C66.1979 126.375 65.526 125.203 65.0469 123.828C64.5781 122.453 64.3438 120.901 64.3438 119.172V118.094C64.3438 116.354 64.5781 114.802 65.0469 113.438C65.5156 112.062 66.1771 110.891 67.0312 109.922C67.8958 108.953 68.9167 108.214 70.0938 107.703C71.2812 107.193 72.5885 106.938 74.0156 106.938C75.4531 106.938 76.7604 107.193 77.9375 107.703C79.125 108.214 80.1458 108.953 81 109.922C81.8646 110.891 82.5312 112.062 83 113.438C83.4792 114.802 83.7188 116.354 83.7188 118.094ZM78.9844 119.172V118.062C78.9844 116.854 78.875 115.792 78.6562 114.875C78.4375 113.958 78.1146 113.188 77.6875 112.562C77.2604 111.938 76.7396 111.469 76.125 111.156C75.5104 110.833 74.8073 110.672 74.0156 110.672C73.224 110.672 72.5208 110.833 71.9062 111.156C71.3021 111.469 70.7865 111.938 70.3594 112.562C69.9427 113.188 69.625 113.958 69.4062 114.875C69.1875 115.792 69.0781 116.854 69.0781 118.062V119.172C69.0781 120.37 69.1875 121.432 69.4062 122.359C69.625 123.276 69.9479 124.052 70.375 124.688C70.8021 125.312 71.3229 125.786 71.9375 126.109C72.5521 126.432 73.2552 126.594 74.0469 126.594C74.8385 126.594 75.5417 126.432 76.1562 126.109C76.7708 125.786 77.2865 125.312 77.7031 124.688C78.1198 124.052 78.4375 123.276 78.6562 122.359C78.875 121.432 78.9844 120.37 78.9844 119.172ZM101.719 126.344V130H90.2656V126.344H101.719ZM91.7812 107.25V130H87.0938V107.25H91.7812ZM113.969 111.141L107.781 130H102.797L111.25 107.25H114.422L113.969 111.141ZM119.109 130L112.906 111.141L112.406 107.25H115.609L124.109 130H119.109ZM118.828 121.531V125.203H106.812V121.531H118.828ZM138.5 107.25H143.172V122.281C143.172 124.031 142.797 125.505 142.047 126.703C141.307 127.901 140.281 128.802 138.969 129.406C137.667 130.01 136.167 130.312 134.469 130.312C132.771 130.312 131.26 130.01 129.938 129.406C128.625 128.802 127.594 127.901 126.844 126.703C126.104 125.505 125.734 124.031 125.734 122.281V107.25H130.422V122.281C130.422 123.302 130.583 124.135 130.906 124.781C131.229 125.427 131.693 125.901 132.297 126.203C132.911 126.505 133.635 126.656 134.469 126.656C135.323 126.656 136.047 126.505 136.641 126.203C137.245 125.901 137.703 125.427 138.016 124.781C138.339 124.135 138.5 123.302 138.5 122.281V107.25ZM165.547 107.25V130H160.859L151.719 114.75V130H147.031V107.25H151.719L160.875 122.516V107.25H165.547ZM182.812 122.453H187.484C187.391 123.984 186.969 125.344 186.219 126.531C185.479 127.719 184.443 128.646 183.109 129.312C181.786 129.979 180.193 130.312 178.328 130.312C176.87 130.312 175.562 130.062 174.406 129.562C173.25 129.052 172.26 128.323 171.438 127.375C170.625 126.427 170.005 125.281 169.578 123.938C169.151 122.594 168.938 121.089 168.938 119.422V117.844C168.938 116.177 169.156 114.672 169.594 113.328C170.042 111.974 170.677 110.823 171.5 109.875C172.333 108.927 173.328 108.198 174.484 107.688C175.641 107.177 176.932 106.922 178.359 106.922C180.255 106.922 181.854 107.266 183.156 107.953C184.469 108.641 185.484 109.589 186.203 110.797C186.932 112.005 187.37 113.38 187.516 114.922H182.828C182.776 114.005 182.594 113.229 182.281 112.594C181.969 111.948 181.495 111.464 180.859 111.141C180.234 110.807 179.401 110.641 178.359 110.641C177.578 110.641 176.896 110.786 176.312 111.078C175.729 111.37 175.24 111.812 174.844 112.406C174.448 113 174.151 113.75 173.953 114.656C173.766 115.552 173.672 116.604 173.672 117.812V119.422C173.672 120.599 173.76 121.635 173.938 122.531C174.115 123.417 174.385 124.167 174.75 124.781C175.125 125.385 175.604 125.844 176.188 126.156C176.781 126.458 177.495 126.609 178.328 126.609C179.307 126.609 180.115 126.453 180.75 126.141C181.385 125.828 181.87 125.365 182.203 124.75C182.547 124.135 182.75 123.37 182.812 122.453ZM205.734 116.516V120.172H193.859V116.516H205.734ZM195.25 107.25V130H190.562V107.25H195.25ZM209.078 107.25V130H204.406V107.25H209.078Z" fill="#EEEEEE"/>
<defs>
<linearGradient id="paint0_linear_1317_8678" x1="77.0503" y1="74.7826" x2="105.385" y2="3.75953" gradientUnits="userSpaceOnUse">
<stop stop-color="#35B8FA"/>
<stop offset="1" stop-color="#AC2DFE"/>
</linearGradient>
</defs>
</svg>
