<svg width="495" height="342" viewBox="0 0 495 342" fill="none" xmlns="http://www.w3.org/2000/svg">
<path d="M255.389 91.3953L247.812 91.5355C245.319 91.5638 242.685 92.5483 239.496 93.8832C236.307 95.218 232.818 96.9806 229.74 98.8598C225.034 101.733 218.825 107.97 213.405 113.65C207.984 119.33 203.58 124.379 203.58 124.379L200.12 128.346L214.063 131.104L215.14 130.072L255.389 91.3953ZM234.845 102.934L212.27 124.637L211.487 124.474C213.22 122.531 214.201 121.357 217.534 117.865C222.849 112.296 229.384 106.055 232.69 104.038C233.358 103.63 234.129 103.331 234.845 102.934ZM202.049 51.4387C197.652 51.6657 193.295 52.3569 189.287 54.0681C181.854 57.2419 177.825 61.7064 174.154 65.3016C167.096 72.2126 154.415 89.2003 154.415 89.2003L151 93.7195L194.017 110.387L195.776 107.512L229.423 52.6363L222.684 52.0843C222.684 52.0843 217.899 51.6907 215.038 51.5913C210.887 51.4464 206.446 51.2117 202.049 51.4387ZM214.755 60.0077C214.92 60.0134 215.067 60.0269 215.253 60.0365L190.681 100.11L164.465 89.9448C167.971 85.3982 175.196 75.8659 179.745 71.4105C183.682 67.5557 186.416 64.392 192.383 61.8441C197.766 59.5454 206.392 59.7101 214.754 60.0009L214.755 60.0077ZM290.148 119.801L233.904 152.233L235.39 155.731L250.636 191.662L254.8 187.964C254.8 187.964 269.216 175.183 275.775 168.784C279.781 164.876 284.508 159.605 287.312 153.572C291.267 145.062 292.759 139.939 292.962 130.952C293.044 127.232 291.849 124.273 291.849 124.273L290.148 119.801ZM284.306 132.807C283.989 139.238 283.376 142.635 279.984 149.933C277.977 154.25 273.809 159.13 270.194 162.657C265.265 167.465 257.553 174.318 253.643 177.811L244.318 155.86L284.306 132.807ZM299.223 0.460764C287.762 1.15669 275.275 0.951676 263.365 5.32017C256.363 7.88837 250.046 12.1743 244.715 17.2225C236.948 24.576 232.148 33.9148 226.848 41.8254C213.37 61.9377 188.89 103.051 188.89 103.051L187.211 105.868L238.305 159.182L240.949 157.798C240.949 157.798 266.277 144.517 288.39 130.635C296.763 125.379 304.673 120.05 310.693 115.2C318.398 108.993 326.431 102.037 332.008 92.8272C336.282 85.7702 338.212 77.8056 339.722 70.3843C342.608 56.2094 343.251 41.6705 342.922 27.4464C342.74 19.5966 341.756 12.3693 340.119 4.20505L339.518 1.24715L336.614 0.882907C328.629 -0.0936799 311.703 -0.297605 299.223 0.460764ZM299.7 8.86521C310.599 8.20454 324.867 8.54472 332.553 9.20443C333.713 15.593 334.645 21.4994 334.788 27.6567C335.107 41.482 334.474 55.3656 331.77 68.6462C330.313 75.8064 328.496 82.7947 325.122 88.366C320.452 96.0792 313.214 102.493 305.69 108.555C300.122 113.041 292.396 118.275 284.17 123.439C263.634 136.331 242.357 147.499 239.837 148.828L197.534 104.682C199.606 101.209 220.986 65.3328 233.529 46.6135C239.182 38.1779 243.79 29.5055 250.205 23.431C254.859 19.0249 260.332 15.3535 266.087 13.2425C276.182 9.54004 287.855 9.5844 299.7 8.86521ZM191.612 100.469L176.865 130.448L217.659 170.193L246.008 155.109L241.947 151.024L191.612 100.469ZM193.859 114.449L232.225 152.985L219.043 159.992L186.871 128.651L193.859 114.449ZM288.685 28.6674C275.176 28.6674 264.159 40.0671 264.159 54.0446C264.159 68.0227 275.176 79.4342 288.685 79.4342C302.194 79.4342 313.223 68.0227 313.223 54.0446C313.223 40.0671 302.194 28.6674 288.685 28.6674ZM288.685 35.8744C298.427 35.8744 306.257 43.9646 306.257 54.0446C306.257 64.1251 298.427 72.227 288.685 72.227C278.943 72.227 271.124 64.1251 271.124 54.0446C271.124 43.9646 278.943 35.8744 288.685 35.8744ZM174.786 142.199C173.722 141.981 172.432 141.945 171.19 142.858L171.094 142.934C167.164 146.151 162.878 150.46 158.888 155.035L158.87 155.054L158.851 155.074C157.142 157.15 157.642 160.18 159.543 162.163C161.547 164.254 164.332 164.552 166.384 162.879L166.402 162.86L166.43 162.841C170.529 159.261 174.358 155.841 178.613 150.751L178.623 150.742L178.632 150.722C179.838 149.23 179.538 147.722 179.233 146.614C178.93 145.509 178.488 144.586 177.645 143.726C176.796 142.862 175.839 142.431 174.775 142.212L174.786 142.199ZM173.901 146.836C173.724 146.949 173.667 146.922 173.873 146.966C174.11 147.023 174.426 147.233 174.372 147.176C174.298 147.1 174.625 147.581 174.724 147.917C170.865 152.469 167.397 155.626 163.47 159.057C163.829 158.755 163.207 159.085 162.88 158.752C162.331 158.182 162.684 157.923 162.426 158.238C166.229 153.881 170.313 149.795 173.906 146.84L173.901 146.836ZM187.741 156.52C186.511 156.267 185.05 156.238 183.691 157.236L183.635 157.265L183.58 157.293C178.688 161.297 173.319 166.682 168.334 172.4L168.315 172.419L168.306 172.448C166.414 174.748 166.921 178.192 169.134 180.5C171.435 182.901 174.668 183.186 176.928 181.345L176.955 181.327L176.974 181.298C182.112 176.81 186.878 172.563 192.186 166.214L192.196 166.196L192.205 166.186C193.499 164.584 193.195 162.888 192.841 161.597C192.487 160.305 191.95 159.201 191.003 158.24C190.054 157.277 188.939 156.767 187.713 156.514L187.741 156.52ZM186.425 161.192C186.242 161.327 186.429 161.201 186.822 161.291C187.226 161.376 187.694 161.666 187.741 161.713H187.75C187.768 161.732 188.209 162.414 188.352 162.934C188.493 163.453 188.214 163.595 188.635 163.074C183.584 169.111 179.107 173.118 174.024 177.559C174.213 177.397 173.109 177.755 172.481 177.101C171.621 176.204 171.964 175.534 171.892 175.622C176.698 170.114 181.865 164.934 186.425 161.192ZM201.365 170.242C200.301 170.022 199.011 169.984 197.769 170.9L197.673 170.975C193.743 174.193 189.457 178.502 185.467 183.078L185.448 183.097L185.43 183.116C183.721 185.192 184.221 188.222 186.122 190.206C188.126 192.296 190.911 192.594 192.963 190.922L192.981 190.903L193.009 190.883C197.108 187.303 200.937 183.883 205.192 178.794L205.202 178.775L205.211 178.765C206.416 177.272 206.105 175.764 205.801 174.657C205.497 173.548 205.072 172.618 204.224 171.757C203.374 170.89 202.418 170.474 201.354 170.254L201.365 170.242ZM200.48 174.878C200.303 174.991 200.246 174.964 200.452 175.007C200.689 175.064 201.005 175.26 200.951 175.207V175.217C200.877 175.14 201.204 175.621 201.303 175.956C197.445 180.508 193.975 183.665 190.049 187.096C190.408 186.795 189.776 187.125 189.448 186.792C188.899 186.22 189.263 185.962 189.006 186.276C192.809 181.919 196.893 177.833 200.487 174.878H200.48Z" fill="url(#paint0_linear_1402_8692)"/>
<path d="M28.084 315L18.564 297.32H17.136V315H3.808V267.06H24.82C28.6733 267.06 31.9373 267.74 34.612 269.1C37.2867 270.415 39.304 272.251 40.664 274.608C42.024 276.92 42.704 279.527 42.704 282.428C42.704 285.692 41.7973 288.571 39.984 291.064C38.216 293.512 35.6093 295.257 32.164 296.3L42.976 315H28.084ZM17.136 288.208H23.732C25.5453 288.208 26.9053 287.777 27.812 286.916C28.7187 286.055 29.172 284.808 29.172 283.176C29.172 281.635 28.696 280.433 27.744 279.572C26.8373 278.665 25.5 278.212 23.732 278.212H17.136V288.208ZM72.769 315.476C68.281 315.476 64.1557 314.433 60.393 312.348C56.6304 310.217 53.6384 307.293 51.417 303.576C49.241 299.813 48.153 295.575 48.153 290.86C48.153 286.145 49.241 281.929 51.417 278.212C53.6384 274.449 56.6304 271.525 60.393 269.44C64.1557 267.355 68.281 266.312 72.769 266.312C77.3024 266.312 81.4277 267.355 85.145 269.44C88.9077 271.525 91.877 274.449 94.053 278.212C96.229 281.929 97.317 286.145 97.317 290.86C97.317 295.575 96.229 299.813 94.053 303.576C91.877 307.293 88.9077 310.217 85.145 312.348C81.3824 314.433 77.257 315.476 72.769 315.476ZM72.769 303.1C76.169 303.1 78.8437 301.989 80.793 299.768C82.7877 297.547 83.785 294.577 83.785 290.86C83.785 287.052 82.7877 284.06 80.793 281.884C78.8437 279.663 76.169 278.552 72.769 278.552C69.3237 278.552 66.6264 279.663 64.677 281.884C62.7277 284.06 61.753 287.052 61.753 290.86C61.753 294.623 62.7277 297.615 64.677 299.836C66.6264 302.012 69.3237 303.1 72.769 303.1ZM134.928 290.384C137.739 291.019 139.96 292.424 141.592 294.6C143.27 296.731 144.108 299.179 144.108 301.944C144.108 306.024 142.703 309.22 139.892 311.532C137.082 313.844 133.138 315 128.06 315H104.328V267.06H127.312C132.208 267.06 136.039 268.148 138.804 270.324C141.615 272.5 143.02 275.56 143.02 279.504C143.02 282.315 142.272 284.672 140.776 286.576C139.326 288.435 137.376 289.704 134.928 290.384ZM117.656 286.1H124.388C127.743 286.1 129.42 284.717 129.42 281.952C129.42 279.096 127.743 277.668 124.388 277.668H117.656V286.1ZM125.408 304.256C128.763 304.256 130.44 302.851 130.44 300.04C130.44 298.589 129.987 297.479 129.08 296.708C128.219 295.937 126.972 295.552 125.34 295.552H117.656V304.256H125.408ZM173.954 315.476C169.466 315.476 165.34 314.433 161.578 312.348C157.815 310.217 154.823 307.293 152.602 303.576C150.426 299.813 149.338 295.575 149.338 290.86C149.338 286.145 150.426 281.929 152.602 278.212C154.823 274.449 157.815 271.525 161.578 269.44C165.34 267.355 169.466 266.312 173.954 266.312C178.487 266.312 182.612 267.355 186.33 269.44C190.092 271.525 193.062 274.449 195.238 278.212C197.414 281.929 198.502 286.145 198.502 290.86C198.502 295.575 197.414 299.813 195.238 303.576C193.062 307.293 190.092 310.217 186.33 312.348C182.567 314.433 178.442 315.476 173.954 315.476ZM173.954 303.1C177.354 303.1 180.028 301.989 181.978 299.768C183.972 297.547 184.97 294.577 184.97 290.86C184.97 287.052 183.972 284.06 181.978 281.884C180.028 279.663 177.354 278.552 173.954 278.552C170.508 278.552 167.811 279.663 165.862 281.884C163.912 284.06 162.938 287.052 162.938 290.86C162.938 294.623 163.912 297.615 165.862 299.836C167.811 302.012 170.508 303.1 173.954 303.1ZM218.841 304.8H233.733V315H205.513V267.06H218.841V304.8ZM270.263 307.18H253.263L250.679 315H236.671L254.147 267.06H269.515L286.923 315H272.847L270.263 307.18ZM266.931 296.98L261.763 281.476L256.663 296.98H266.931ZM305.343 267.06V294.872C305.343 297.456 305.933 299.451 307.111 300.856C308.335 302.261 310.171 302.964 312.619 302.964C315.067 302.964 316.903 302.261 318.127 300.856C319.397 299.405 320.031 297.411 320.031 294.872V267.06H333.359V294.872C333.359 299.269 332.43 303.032 330.571 306.16C328.713 309.243 326.174 311.577 322.955 313.164C319.782 314.705 316.246 315.476 312.347 315.476C308.449 315.476 304.958 314.705 301.875 313.164C298.838 311.577 296.435 309.243 294.667 306.16C292.945 303.077 292.083 299.315 292.083 294.872V267.06H305.343ZM386.122 315H372.794L355.046 288.208V315H341.718V267.06H355.046L372.794 294.192V267.06H386.122V315ZM393.102 290.928C393.102 286.213 394.076 282.02 396.026 278.348C398.02 274.631 400.831 271.752 404.458 269.712C408.084 267.627 412.255 266.584 416.97 266.584C422.954 266.584 427.986 268.193 432.066 271.412C436.146 274.585 438.775 278.915 439.954 284.4H425.606C424.744 282.587 423.543 281.204 422.002 280.252C420.506 279.3 418.76 278.824 416.766 278.824C413.683 278.824 411.212 279.935 409.354 282.156C407.54 284.332 406.634 287.256 406.634 290.928C406.634 294.645 407.54 297.615 409.354 299.836C411.212 302.012 413.683 303.1 416.766 303.1C418.76 303.1 420.506 302.624 422.002 301.672C423.543 300.72 424.744 299.337 425.606 297.524H439.954C438.775 303.009 436.146 307.361 432.066 310.58C427.986 313.753 422.954 315.34 416.97 315.34C412.255 315.34 408.084 314.32 404.458 312.28C400.831 310.195 398.02 307.316 396.026 303.644C394.076 299.927 393.102 295.688 393.102 290.928ZM490.193 267.06V315H476.865V295.756H460.613V315H447.285V267.06H460.613V285.08H476.865V267.06H490.193Z" fill="black"/>
<defs>
<linearGradient id="paint0_linear_1402_8692" x1="177.521" y1="179.478" x2="245.523" y2="9.02285" gradientUnits="userSpaceOnUse">
<stop stop-color="#35B8FA"/>
<stop offset="1" stop-color="#AC2DFE"/>
</linearGradient>
</defs>
</svg>
