<svg width="496" height="323" viewBox="0 0 496 323" fill="none" xmlns="http://www.w3.org/2000/svg">
<path d="M256.39 91.3949L248.812 91.5348C246.318 91.5636 243.685 92.5485 240.496 93.8831C237.308 95.2178 233.819 96.9808 230.74 98.8596C226.034 101.733 219.826 107.97 214.405 113.65C208.984 119.33 204.58 124.378 204.58 124.378L201.121 128.346L215.063 131.104L216.14 130.072L256.39 91.3949ZM235.845 102.934L213.27 124.637L212.487 124.473C214.22 122.53 215.201 121.356 218.534 117.864C223.849 112.296 230.385 106.055 233.689 104.037C234.358 103.629 235.129 103.332 235.845 102.934ZM203.049 51.4388C198.652 51.6656 194.295 52.357 190.287 54.0682C182.854 57.2415 178.825 61.706 175.154 65.3013C168.096 72.2126 155.415 89.1997 155.415 89.1997L152 93.7191L195.017 110.387L196.776 107.511L230.422 52.6359L223.684 52.084C223.684 52.084 218.898 51.6903 216.038 51.5912C211.887 51.4463 207.446 51.2119 203.049 51.4388ZM215.755 60.0076C215.92 60.0132 216.068 60.0265 216.253 60.036L191.681 100.11L165.465 89.9444C168.971 85.3978 176.196 75.8658 180.745 71.4104C184.682 67.5553 187.416 64.3919 193.383 61.8439C198.766 59.5454 207.392 59.7098 215.754 60.0009L215.755 60.0076ZM291.148 119.801L234.903 152.233L236.39 155.731L251.636 191.662L255.8 187.964C255.8 187.964 270.216 175.182 276.775 168.784C280.781 164.876 285.508 159.605 288.313 153.571C292.268 145.062 293.759 139.939 293.962 130.952C294.045 127.231 292.85 124.273 292.85 124.273L291.148 119.801ZM285.306 132.807C284.989 139.239 284.376 142.635 280.983 149.932C278.977 154.25 274.81 159.129 271.194 162.656C266.265 167.465 258.553 174.317 254.642 177.81L245.318 155.86L285.306 132.807ZM300.224 0.46058C288.762 1.1565 276.275 0.951498 264.364 5.32001C257.363 7.88814 251.046 12.1742 245.714 17.2223C237.948 24.5759 233.148 33.9146 227.847 41.8252C214.37 61.9376 189.89 103.051 189.89 103.051L188.211 105.868L239.305 159.182L241.948 157.797C241.948 157.797 267.277 144.517 289.39 130.635C297.763 125.379 305.673 120.05 311.692 115.2C319.398 108.992 327.431 102.037 333.009 92.8267C337.281 85.7702 339.212 77.8057 340.723 70.3839C343.608 56.2093 344.251 41.6703 343.922 27.4462C343.74 19.5965 342.756 12.3691 341.12 4.20487L340.518 1.24697L337.614 0.88272C329.629 -0.0938636 312.703 -0.297789 300.224 0.46058ZM300.7 8.86501C311.599 8.20436 325.868 8.54451 333.553 9.20423C334.713 15.5929 335.645 21.4992 335.788 27.6566C336.107 41.4818 335.474 55.3656 332.77 68.6459C331.312 75.8062 329.496 82.7945 326.123 88.3657C321.452 96.0791 314.214 102.494 306.69 108.555C301.122 113.04 293.395 118.275 285.17 123.439C264.634 136.331 243.357 147.499 240.837 148.828L198.534 104.682C200.606 101.209 221.986 65.3327 234.529 46.6134C240.182 38.1778 244.79 29.5054 251.205 23.4308C255.859 19.0247 261.332 15.3533 267.087 13.2424C277.182 9.5398 288.855 9.58419 300.7 8.86501ZM192.612 100.469L177.865 130.447L218.659 170.193L247.008 155.109L242.947 151.024L192.612 100.469ZM194.859 114.448L233.225 152.984L220.043 159.992L187.871 128.651L194.859 114.448ZM289.685 28.6673C276.177 28.6673 265.159 40.0669 265.159 54.0446C265.159 68.0224 276.177 79.4342 289.685 79.4342C303.194 79.4342 314.222 68.0224 314.222 54.0446C314.222 40.0669 303.194 28.6673 289.685 28.6673ZM289.685 35.8742C299.427 35.8742 307.257 43.9645 307.257 54.0446C307.257 64.1248 299.427 72.2269 289.685 72.2269C279.943 72.2269 272.124 64.1248 272.124 54.0446C272.124 43.9645 279.943 35.8742 289.685 35.8742ZM175.786 142.199C174.722 141.98 173.432 141.945 172.19 142.857L172.094 142.933C168.164 146.151 163.878 150.459 159.888 155.035L159.87 155.054L159.851 155.073C158.142 157.149 158.642 160.18 160.543 162.163C162.547 164.253 165.332 164.552 167.384 162.88L167.402 162.86L167.43 162.841C171.529 159.26 175.358 155.841 179.614 150.751L179.623 150.742L179.632 150.722C180.838 149.23 180.538 147.722 180.233 146.614C179.93 145.509 179.488 144.585 178.645 143.726C177.796 142.862 176.839 142.431 175.775 142.212L175.786 142.199ZM174.901 146.836C174.724 146.948 174.667 146.922 174.873 146.965C175.11 147.023 175.426 147.233 175.372 147.176C175.298 147.1 175.625 147.581 175.724 147.918C171.865 152.469 168.397 155.625 164.47 159.057C164.829 158.755 164.207 159.085 163.88 158.753C163.331 158.181 163.684 157.922 163.426 158.237C167.229 153.88 171.313 149.794 174.906 146.84L174.901 146.836ZM188.741 156.52C187.511 156.268 186.05 156.238 184.691 157.236L184.635 157.264L184.58 157.293C179.688 161.297 174.319 166.681 169.334 172.4L169.315 172.419L169.306 172.448C167.414 174.748 167.922 178.192 170.134 180.5C172.435 182.9 175.668 183.186 177.928 181.346L177.955 181.326L177.974 181.298C183.112 176.809 187.878 172.563 193.186 166.214L193.196 166.196L193.205 166.186C194.499 164.584 194.195 162.888 193.841 161.596C193.487 160.305 192.95 159.201 192.003 158.24C191.054 157.277 189.939 156.767 188.713 156.514L188.741 156.52ZM187.425 161.191C187.242 161.327 187.429 161.201 187.822 161.291C188.226 161.376 188.694 161.666 188.741 161.713H188.75C188.768 161.732 189.209 162.414 189.352 162.934C189.493 163.453 189.214 163.595 189.635 163.074C184.584 169.111 180.107 173.118 175.024 177.559C175.213 177.398 174.109 177.755 173.481 177.101C172.621 176.204 172.964 175.534 172.892 175.622C177.698 170.114 182.863 164.938 187.424 161.196L187.425 161.191ZM202.365 170.242C201.301 170.022 200.011 169.984 198.769 170.899L198.673 170.975C194.743 174.193 190.457 178.501 186.467 183.078L186.448 183.096L186.43 183.116C184.721 185.192 185.221 188.222 187.122 190.206C189.126 192.295 191.911 192.594 193.963 190.922L193.981 190.902L194.009 190.884C198.108 187.302 201.937 183.883 206.193 178.794L206.202 178.774L206.211 178.765C207.417 177.273 207.105 175.764 206.8 174.656C206.497 173.548 206.072 172.618 205.224 171.757C204.374 170.891 203.418 170.474 202.354 170.255L202.365 170.242ZM201.48 174.878C201.303 174.99 201.246 174.964 201.452 175.007C201.689 175.064 202.005 175.261 201.951 175.207V175.216C201.877 175.14 202.204 175.621 202.303 175.956C198.445 180.509 194.975 183.665 191.049 187.096C191.408 186.795 190.776 187.124 190.448 186.792C189.899 186.22 190.263 185.962 190.006 186.276C193.809 181.919 197.893 177.832 201.487 174.878H201.48Z" fill="url(#paint0_linear_1413_8677)"/>
<path d="M4.352 304H17.088V291.008H22.272L31.168 304H45.568L35.456 289.152C40.896 286.592 44.032 281.28 44.032 275.136C44.032 266.176 37.632 259.2 27.2 259.2H4.352V304ZM17.088 269.376H26.112C29.888 269.376 31.936 272 31.936 275.136C31.872 278.144 30.016 280.832 26.112 280.832H17.088V269.376ZM48.8665 281.472C48.8665 294.272 59.2985 304.64 73.2505 304.704C87.1385 304.768 97.5065 294.464 97.5705 281.472C97.6345 268.672 87.2025 258.496 73.2505 258.496C59.2985 258.496 48.8665 268.544 48.8665 281.472ZM61.6025 281.472C61.6025 274.688 66.7865 269.376 73.2505 269.376C79.6505 269.376 84.8345 274.624 84.8345 281.472C84.8345 288.384 79.6505 293.888 73.2505 293.888C66.7865 293.888 61.6025 288.32 61.6025 281.472ZM104.227 259.2V304H129.891C141.283 304 146.787 298.432 146.787 290.624C146.787 284.992 143.075 281.28 139.363 280.32C142.883 278.72 145.251 275.328 145.251 270.784C145.251 264.384 139.875 259.2 128.547 259.2H104.227ZM129.123 285.824C132.195 285.824 134.051 287.168 134.051 289.792C134.051 292.224 132.195 293.824 128.995 293.824H116.963V285.824H129.123ZM127.843 269.376C130.915 269.376 132.579 270.848 132.643 273.024C132.707 275.136 131.043 276.608 127.843 276.608H116.963V269.376H127.843ZM151.367 281.472C151.367 294.272 161.799 304.64 175.751 304.704C189.639 304.768 200.007 294.464 200.071 281.472C200.135 268.672 189.703 258.496 175.751 258.496C161.799 258.496 151.367 268.544 151.367 281.472ZM164.103 281.472C164.103 274.688 169.287 269.376 175.751 269.376C182.151 269.376 187.335 274.624 187.335 281.472C187.335 288.384 182.151 293.888 175.751 293.888C169.287 293.888 164.103 288.32 164.103 281.472ZM219.463 293.824V259.2H206.727V304H240.135V293.824H219.463ZM256.521 304L259.721 296.768H280.201L283.401 304H296.777L276.617 259.2H263.305L243.081 304H256.521ZM264.137 286.656L269.961 273.728L275.721 286.656H264.137ZM318.7 304.704C329.451 304.704 338.796 298.432 338.796 286.656V259.2H326.06V286.656C326.06 290.88 323.564 294.528 318.636 294.528C313.836 294.528 311.276 290.88 311.276 286.656V259.2H298.54V286.656C298.54 298.432 307.884 304.704 318.7 304.704ZM347.227 259.2V304H359.963V279.552L377.563 304H390.491V259.2H377.755V283.584L360.091 259.2H347.227ZM421.501 304.64C432.189 304.64 438.589 298.944 440.957 294.784L432.765 289.088C431.293 291.328 428.541 294.336 422.077 294.336C415.421 294.336 409.853 289.472 409.853 281.728C409.853 273.92 415.549 268.864 422.141 268.864C427.645 268.864 430.653 271.488 432.509 273.984L441.021 267.712C437.757 262.976 431.037 258.624 421.501 258.624C408.253 258.688 397.117 267.776 397.117 281.728C397.117 295.872 408.125 304.64 421.501 304.64ZM447.354 259.2V304H460.09V286.72H478.074V304H490.81V259.2H478.074V276.544H460.026V259.2H447.354Z" fill="#666666"/>
<defs>
<linearGradient id="paint0_linear_1413_8677" x1="110.865" y1="81.0388" x2="250.559" y2="-35.4997" gradientUnits="userSpaceOnUse">
<stop stop-color="#35B8FA"/>
<stop offset="1" stop-color="#AC2DFE"/>
</linearGradient>
</defs>
</svg>
