<svg width="64" height="64" viewBox="0 0 64 64" fill="none" xmlns="http://www.w3.org/2000/svg">
<path d="M34.7965 30.465L32.2705 30.5117C31.4395 30.5213 30.5617 30.8495 29.4988 31.2944C28.4359 31.7393 27.2729 32.327 26.2466 32.9533C24.6781 33.9112 22.6085 35.99 20.8016 37.8833C18.9945 39.7766 17.5268 41.4595 17.5268 41.4595L16.3735 42.782L21.0209 43.7014L21.3799 43.3573L34.7965 30.465ZM27.9483 34.3112L20.4234 41.5458L20.1624 41.4912C20.7401 40.8434 21.067 40.4521 22.1779 39.2882C23.9496 37.432 26.1282 35.3518 27.2298 34.6792C27.4528 34.5431 27.7098 34.4439 27.9483 34.3112ZM17.0163 17.1463C15.5507 17.2219 14.0983 17.4524 12.7622 18.0228C10.2848 19.0806 8.94166 20.5687 7.71786 21.7672C5.36536 24.0709 1.13818 29.7333 1.13818 29.7333L0 31.2398L14.3391 36.7958L14.9252 35.8371L26.1408 17.5454L23.8947 17.3614C23.8947 17.3614 22.2994 17.2302 21.346 17.1971C19.9622 17.1488 18.4819 17.0707 17.0163 17.1463ZM21.2515 20.0026C21.3065 20.0045 21.3559 20.0089 21.4176 20.0121L13.2271 33.3699L4.48832 29.9815C5.65706 28.466 8.06528 25.2887 9.58183 23.8035C10.8941 22.5185 11.8052 21.464 13.7943 20.6147C15.5888 19.8485 18.464 19.9033 21.2512 20.0004L21.2515 20.0026ZM46.3828 39.9337L27.6345 50.7445L28.13 51.9105L33.2121 63.8873L34.5999 62.6547C34.5999 62.6547 39.4053 58.3942 41.5916 56.2614C42.927 54.9586 44.5026 53.2016 45.4375 51.1904C46.7559 48.3539 47.2532 46.6464 47.3206 43.6508C47.3482 42.4105 46.9499 41.4243 46.9499 41.4243L46.3828 39.9337ZM44.4352 44.2691C44.3296 46.4129 44.1253 47.545 42.9944 49.9775C42.3256 51.4169 40.9366 53.043 39.7312 54.2189C38.0884 55.8217 35.5178 58.1058 34.2141 59.2702L31.106 51.9535L44.4352 44.2691ZM49.408 0.153588C45.5874 0.385562 41.425 0.317227 37.4548 1.7734C35.121 2.62944 33.0154 4.05812 31.2381 5.74082C28.6493 8.19202 27.0493 11.3049 25.2825 13.9418C20.7901 20.6459 12.6299 34.3504 12.6299 34.3504L12.0703 35.2894L29.1018 53.0606L29.9828 52.5992C29.9828 52.5992 38.4256 48.1723 45.7967 43.5451C48.5878 41.793 51.2244 40.0166 53.2308 38.4C55.7994 36.3307 58.477 34.0125 60.3362 30.9423C61.7605 28.5901 62.4039 25.9353 62.9076 23.4614C63.8693 18.7365 64.0837 13.8901 63.9739 9.14881C63.9133 6.53222 63.5855 4.1231 63.04 1.40169L62.8394 0.415717L61.8712 0.294301C59.2096 -0.0312266 53.5677 -0.0992018 49.408 0.153588ZM49.5668 2.95506C53.1997 2.73485 57.9559 2.84823 60.5176 3.06814C60.9044 5.19768 61.215 7.16647 61.2625 9.21893C61.3691 13.8273 61.1579 18.4553 60.2567 22.882C59.7708 25.2688 59.1653 27.5982 58.0408 29.4553C56.4839 32.0264 54.0714 34.1646 51.5633 36.1851C49.7073 37.6802 47.1318 39.425 44.3899 41.1463C37.5446 45.4436 30.4524 49.1665 29.6123 49.6093L15.5113 34.894C16.2021 33.7365 23.3286 21.7776 27.5097 15.5378C29.394 12.726 30.93 9.83519 33.0683 7.81033C34.6196 6.34162 36.444 5.11782 38.3623 4.41419C41.7272 3.18 45.6184 3.19479 49.5668 2.95506ZM13.5374 33.4896L8.62163 43.4824L22.2196 56.7309L31.6694 51.7032L30.3156 50.3416L13.5374 33.4896ZM14.2862 38.1494L27.0749 50.9948L22.6809 53.3306L11.9569 42.8839L14.2862 38.1494ZM45.8951 9.55582C41.3922 9.55582 37.7196 13.3557 37.7196 18.0149C37.7196 22.6742 41.3922 26.4781 45.8951 26.4781C50.398 26.4781 54.0741 22.6742 54.0741 18.0149C54.0741 13.3557 50.398 9.55582 45.8951 9.55582ZM45.8951 11.9581C49.1424 11.9581 51.7524 14.6549 51.7524 18.0149C51.7524 21.375 49.1424 24.0757 45.8951 24.0757C42.6476 24.0757 40.0413 21.375 40.0413 18.0149C40.0413 14.6549 42.6476 11.9581 45.8951 11.9581ZM7.92874 47.3999C7.57398 47.3268 7.14415 47.3152 6.73009 47.6191L6.69814 47.6445C5.38804 48.7169 3.95919 50.1532 2.62932 51.6783L2.62324 51.6848L2.61703 51.691C2.04735 52.3831 2.21391 53.3933 2.8477 54.0543C3.51557 54.7511 4.44386 54.8506 5.1279 54.2932L5.13408 54.2868L5.14326 54.2805C6.50956 53.0868 7.78604 51.947 9.2045 50.2504L9.20751 50.2472L9.21058 50.2408C9.61253 49.7433 9.51251 49.2406 9.41115 48.8714C9.31013 48.5032 9.16268 48.1951 8.88172 47.9088C8.59855 47.6206 8.27982 47.4771 7.92507 47.404L7.92874 47.3999ZM7.6336 48.9455C7.57462 48.9828 7.55562 48.974 7.62442 48.9885C7.70333 49.0077 7.80871 49.0776 7.79059 49.0587C7.766 49.0333 7.87498 49.1937 7.90784 49.3059C6.62176 50.823 5.46552 51.8752 4.15673 53.0189C4.27621 52.9184 4.06912 53.0285 3.9601 52.9176C3.77706 52.7272 3.89472 52.6409 3.80874 52.7458C5.07638 51.2935 6.43754 49.9314 7.63547 48.9468L7.6336 48.9455ZM12.2469 52.1735C11.8371 52.0893 11.3499 52.0794 10.897 52.4121L10.8785 52.4214L10.8601 52.431C9.22931 53.7657 7.4398 55.5605 5.77787 57.4668L5.77179 57.473L5.76869 57.4826C5.13784 58.2493 5.30717 59.3974 6.0448 60.1667C6.81181 60.9669 7.88943 61.0619 8.64263 60.4486L8.65181 60.4422L8.65799 60.4326C10.3706 58.9365 11.9595 57.521 13.7288 55.4048L13.7319 55.3986L13.735 55.3955C14.1664 54.8615 14.0649 54.2961 13.9469 53.8654C13.829 53.4351 13.6499 53.0671 13.3342 52.7466C13.0179 52.4258 12.6464 52.2556 12.2377 52.1714L12.2469 52.1735ZM11.8083 53.7304C11.7472 53.7758 11.8097 53.7338 11.9407 53.7636C12.0752 53.7921 12.2312 53.8888 12.2469 53.9043H12.2499C12.2561 53.9108 12.4029 54.138 12.4505 54.3114C12.4978 54.4845 12.4047 54.5316 12.5451 54.358C10.8613 56.3705 9.36903 57.706 7.67466 59.1862C7.7376 59.1326 7.36965 59.2518 7.16039 59.0336C6.87355 58.7346 6.98811 58.5113 6.96384 58.5408C8.56605 56.7048 10.2877 54.9794 11.8078 53.732L11.8083 53.7304ZM16.7884 56.7473C16.4337 56.6742 16.0037 56.6615 15.5897 56.9665L15.5577 56.9919C14.2476 58.0643 12.8189 59.5006 11.489 61.0259L11.4828 61.0321L11.4767 61.0386C10.907 61.7307 11.0736 62.7407 11.7074 63.402C12.3752 64.0984 13.3036 64.1979 13.9876 63.6406L13.9937 63.6341L14.0029 63.6279C15.3692 62.4342 16.6457 61.2944 18.0642 59.598L18.0673 59.5915L18.0703 59.5884C18.4722 59.0909 18.3685 58.5882 18.2668 58.2187C18.1658 57.8492 18.0239 57.5394 17.7412 57.2523C17.4581 56.9636 17.1393 56.8247 16.7846 56.7517L16.7884 56.7473ZM16.4933 58.2928C16.4343 58.3302 16.4152 58.3213 16.484 58.3356C16.5629 58.3548 16.6683 58.4203 16.6502 58.4024V58.4056C16.6256 58.3802 16.7347 58.5403 16.7675 58.6522C15.4815 60.1696 14.3251 61.2218 13.0163 62.3653C13.1361 62.265 12.9255 62.3749 12.8161 62.264C12.6331 62.0732 12.7544 61.9875 12.6687 62.0919C13.9363 60.6396 15.2976 59.2775 16.4955 58.2928H16.4933Z" fill="url(#paint0_linear_1253_8678)"/>
<defs>
<linearGradient id="paint0_linear_1253_8678" x1="-13.7118" y1="27.0129" x2="32.853" y2="-11.8332" gradientUnits="userSpaceOnUse">
<stop stop-color="#35B8FA"/>
<stop offset="1" stop-color="#AC2DFE"/>
</linearGradient>
</defs>
</svg>
