<svg width="512" height="512" viewBox="0 0 512 512" fill="none" xmlns="http://www.w3.org/2000/svg">
<path d="M278.372 243.721L258.164 244.095C251.516 244.17 244.493 246.795 235.99 250.355C227.487 253.915 218.182 258.615 209.974 263.626C197.425 271.288 180.868 287.921 166.413 303.067C151.956 318.213 140.214 331.676 140.214 331.676L130.987 342.255L168.168 349.611L171.04 346.858L278.372 243.721ZM223.586 274.49L163.387 332.366L161.299 331.929C165.921 326.748 168.536 323.618 177.423 314.306C191.597 299.456 209.025 282.815 217.839 277.433C219.622 276.345 221.678 275.551 223.586 274.49ZM136.13 137.17C124.406 137.775 112.786 139.619 102.098 144.182C82.2785 152.645 71.5333 164.55 61.7428 174.138C42.9229 192.567 9.10543 237.867 9.10543 237.867L0 249.919L114.713 294.365L119.402 286.698L209.128 140.363L191.158 138.891C191.158 138.891 178.396 137.842 170.769 137.577C159.698 137.19 147.855 136.564 136.13 137.17ZM170.012 160.02C170.452 160.036 170.847 160.072 171.341 160.097L105.817 266.961L35.9067 239.853C45.2564 227.729 64.5222 202.309 76.6546 190.428C87.1525 180.148 94.4414 171.712 110.355 164.918C124.711 158.788 147.712 159.227 170.01 160.003L170.012 160.02ZM371.062 319.47L221.076 405.956L225.039 415.283L265.697 511.097L276.8 501.238C276.8 501.238 315.242 467.154 332.733 450.091C343.416 439.67 356.022 425.613 363.499 409.524C374.047 386.833 378.025 373.171 378.565 349.206C378.785 339.284 375.598 331.396 375.598 331.396L371.062 319.47ZM355.483 354.152C354.637 371.302 353.002 380.36 343.956 399.821C338.605 411.334 327.492 424.345 317.851 433.751C304.706 446.574 284.142 464.847 273.714 474.162L248.847 415.627L355.483 354.152ZM395.263 1.2287C364.7 3.0845 331.4 2.5378 299.639 14.1871C280.968 21.0356 264.123 32.4649 249.906 45.9266C229.195 65.5361 216.395 90.4395 202.26 111.534C166.321 165.167 101.039 274.803 101.039 274.803L96.5623 282.315L232.814 424.486L239.863 420.793C239.863 420.793 307.405 385.378 366.373 348.361C388.701 334.344 409.794 320.133 425.847 307.2C446.395 290.647 467.817 272.1 482.689 247.539C494.085 228.721 499.232 207.482 503.26 187.691C510.955 149.892 512.669 111.121 511.791 73.1904C511.306 52.2576 508.683 32.9848 504.318 11.2135L502.715 3.32573L494.969 2.35442C473.677 -0.249813 428.541 -0.793614 395.263 1.2287ZM396.534 23.6406C425.597 21.8788 463.646 22.7859 484.142 24.5451C487.236 41.5814 489.72 57.3318 490.1 73.7513C490.953 110.619 489.263 147.642 482.054 183.057C478.167 202.15 473.323 220.786 464.326 235.643C451.872 256.211 432.571 273.316 412.507 289.481C397.659 301.442 377.056 315.4 355.119 329.17C300.357 363.549 243.618 393.331 236.898 396.875L124.091 279.151C129.617 269.892 186.629 174.221 220.078 124.303C235.151 101.808 247.439 78.6814 264.546 62.4825C276.956 50.733 291.552 40.9426 306.899 35.3134C333.817 25.4401 364.947 25.5584 396.534 23.6406ZM108.299 267.917L68.973 347.86L177.757 453.847L253.355 413.624L242.525 402.731L108.299 267.917ZM114.289 305.197L216.6 407.959L181.448 426.646L95.655 343.071L114.289 305.197ZM367.16 76.4464C331.137 76.4464 301.757 106.846 301.757 144.119C301.757 181.394 331.137 211.825 367.16 211.825C403.184 211.825 432.594 181.394 432.594 144.119C432.594 106.846 403.184 76.4464 367.16 76.4464ZM367.16 95.665C393.139 95.665 414.018 117.239 414.018 144.119C414.018 171 393.139 192.605 367.16 192.605C341.181 192.605 320.331 171 320.331 144.119C320.331 117.239 341.181 95.665 367.16 95.665ZM63.4299 379.199C60.5918 378.615 57.1532 378.52 53.8407 380.953L53.5851 381.157C43.1042 389.736 31.6735 401.226 21.0346 413.427L20.9858 413.478L20.9363 413.529C16.3787 419.065 17.7112 427.147 22.7816 432.435C28.1247 438.009 35.551 438.804 41.0232 434.345L41.0726 434.294L41.1461 434.244C52.0764 424.695 62.2882 415.575 73.6359 402.003L73.66 401.977L73.6847 401.926C76.9003 397.947 76.1001 393.925 75.2892 390.971C74.4809 388.024 73.3015 385.561 71.0537 383.27C68.7884 380.965 66.2386 379.817 63.4005 379.233L63.4299 379.199ZM61.0688 391.563C60.597 391.863 60.4449 391.791 60.9953 391.909C61.6267 392.061 62.4696 392.621 62.3247 392.47C62.1281 392.267 62.9998 393.549 63.2627 394.446C52.9741 406.584 43.7243 415.003 33.2539 424.151C34.2096 423.347 32.5529 424.228 31.6808 423.339C30.2164 421.817 31.1579 421.128 30.4699 421.967C40.6111 410.349 51.5004 399.452 61.0837 391.574L61.0688 391.563ZM97.9756 417.387C94.6968 416.713 90.7991 416.635 87.1756 419.296L87.0279 419.373L86.881 419.448C73.8346 430.125 59.5184 444.485 46.223 459.734L46.1742 459.785L46.1495 459.86C41.1027 465.995 42.4573 475.179 48.3584 481.334C54.4944 487.735 63.1154 488.495 69.141 483.588L69.2144 483.538L69.264 483.461C82.9644 471.493 95.6757 460.167 109.83 443.238L109.855 443.188L109.88 443.163C113.331 438.891 112.519 434.368 111.575 430.925C110.632 427.48 109.199 424.536 106.674 421.972C104.143 419.406 101.171 418.044 97.9014 417.371L97.9756 417.387ZM94.4665 429.844C93.9777 430.205 94.4774 429.87 95.5253 430.109C96.6014 430.337 97.8496 431.11 97.9749 431.236H97.9996C98.0487 431.286 99.2232 433.103 99.6042 434.489C99.9825 435.876 99.2378 436.252 100.361 434.864C86.8902 450.963 74.9522 461.647 61.3972 473.49C61.9008 473.06 58.9572 474.013 57.283 472.27C54.9883 469.878 55.9049 468.089 55.7108 468.326C68.5285 453.637 82.3054 439.823 94.4665 429.844ZM134.308 453.977C131.469 453.392 128.029 453.291 124.718 455.732L124.462 455.935C113.981 464.514 102.551 476.005 91.912 488.207L91.8626 488.258L91.8138 488.31C87.2555 493.846 88.5888 501.926 93.6591 507.215C99.0018 512.788 106.428 513.583 111.901 509.125L111.949 509.074L112.023 509.023C122.953 499.475 133.165 490.355 144.513 476.783L144.539 476.732L144.562 476.706C147.777 472.726 146.948 468.705 146.135 465.751C145.326 462.795 144.192 460.316 141.93 458.018C139.665 455.708 137.115 454.597 134.277 454.012L134.308 453.977ZM131.946 466.342C131.475 466.642 131.322 466.571 131.872 466.685C132.503 466.838 133.346 467.361 133.202 467.219V467.245C133.005 467.041 133.878 468.322 134.14 469.217C123.852 481.355 114.601 489.774 104.131 498.922C105.089 498.119 103.404 498.999 102.529 498.112C101.065 496.586 102.035 495.9 101.35 496.736C111.491 485.117 122.381 474.221 131.964 466.342H131.946Z" fill="url(#paint0_linear_1402_8696)"/>
<defs>
<linearGradient id="paint0_linear_1402_8696" x1="70.7216" y1="478.608" x2="252.061" y2="24.0609" gradientUnits="userSpaceOnUse">
<stop stop-color="#35B8FA"/>
<stop offset="1" stop-color="#AC2DFE"/>
</linearGradient>
</defs>
</svg>
