<svg width="512" height="512" viewBox="0 0 512 512" fill="none" xmlns="http://www.w3.org/2000/svg">
<path d="M278.372 243.72L258.164 244.093C251.516 244.17 244.494 246.796 235.991 250.355C227.487 253.914 218.183 258.615 209.973 263.626C197.425 271.289 180.868 287.92 166.413 303.066C151.956 318.213 140.214 331.676 140.214 331.676L130.988 342.256L168.167 349.61L171.039 346.858L278.372 243.72ZM223.586 274.489L163.387 332.366L161.299 331.929C165.921 326.747 168.536 323.617 177.423 314.305C191.597 299.455 209.026 282.814 217.838 277.433C219.622 276.345 221.678 275.551 223.586 274.489ZM136.13 137.17C124.406 137.775 112.786 139.619 102.098 144.182C82.2786 152.644 71.5333 164.549 61.7429 174.137C42.9229 192.567 9.10543 237.866 9.10543 237.866L0 249.918L114.713 294.366L119.402 286.697L209.126 140.363L191.158 138.891C191.158 138.891 178.396 137.841 170.768 137.577C159.698 137.19 147.855 136.565 136.13 137.17ZM170.012 160.02C170.452 160.035 170.847 160.071 171.341 160.096L105.817 266.959L35.9065 239.852C45.2565 227.728 64.5222 202.309 76.6547 190.428C87.1524 180.147 94.4415 171.712 110.355 164.917C124.711 158.788 147.712 159.226 170.01 160.002L170.012 160.02ZM371.062 319.469L221.076 405.955L225.04 415.283L265.696 511.098L276.799 501.237C276.799 501.237 315.242 467.153 332.733 450.091C343.416 439.669 356.021 425.612 363.5 409.523C374.047 386.831 378.025 373.171 378.565 349.206C378.785 339.283 375.599 331.394 375.599 331.394L371.062 319.469ZM355.481 354.152C354.637 371.303 353.002 380.359 343.956 399.82C338.605 411.334 327.493 424.344 317.85 433.75C304.707 446.573 284.142 464.846 273.713 474.161L248.848 415.627L355.481 354.152ZM395.264 1.22821C364.699 3.08401 331.4 2.53733 299.638 14.1867C280.968 21.035 264.123 32.4644 249.905 45.9261C229.195 65.5357 216.395 90.439 202.26 111.534C166.321 165.167 101.039 274.802 101.039 274.802L96.5622 282.315L232.814 424.485L239.862 420.793C239.862 420.793 307.405 385.378 366.373 348.36C388.702 334.344 409.795 320.132 425.846 307.199C446.395 290.645 467.816 272.099 482.69 247.538C494.084 228.72 499.231 207.482 503.26 187.69C510.954 149.892 512.669 111.121 511.791 73.19C511.307 52.2573 508.684 32.9843 504.32 11.213L502.715 3.32525L494.97 2.35392C473.677 -0.250303 428.542 -0.794105 395.264 1.22821ZM396.534 23.64C425.598 21.8783 463.647 22.7854 484.141 24.5446C487.235 41.5809 489.72 57.3313 490.1 73.7509C490.953 110.618 489.263 147.642 482.054 183.056C478.166 202.15 473.322 220.785 464.327 235.642C451.871 256.211 432.571 273.316 412.506 289.481C397.658 301.441 377.054 315.4 355.119 329.17C300.357 363.548 243.619 393.331 236.898 396.874L124.091 279.151C129.617 269.892 186.629 174.22 220.077 124.302C235.152 101.807 247.44 78.681 264.546 62.4822C276.956 50.7325 291.552 40.9421 306.899 35.313C333.818 25.4395 364.948 25.5578 396.534 23.64ZM108.299 267.916L68.9731 347.859L177.757 453.847L253.355 413.625L242.524 402.732L108.299 267.916ZM114.29 305.195L216.6 407.958L181.447 426.645L95.655 343.071L114.29 305.195ZM367.161 76.4461C331.138 76.4461 301.757 106.845 301.757 144.119C301.757 181.393 331.138 211.824 367.161 211.824C403.184 211.824 432.593 181.393 432.593 144.119C432.593 106.845 403.184 76.4461 367.161 76.4461ZM367.161 95.6645C393.139 95.6645 414.019 117.239 414.019 144.119C414.019 171 393.139 192.605 367.161 192.605C341.181 192.605 320.331 171 320.331 144.119C320.331 117.239 341.181 95.6645 367.161 95.6645ZM63.4299 379.199C60.5918 378.614 57.1532 378.521 53.8407 380.952L53.5851 381.155C43.1043 389.735 31.6735 401.225 21.0345 413.426L20.9859 413.478L20.9363 413.527C16.3788 419.064 17.7113 427.146 22.7816 432.434C28.1245 438.008 35.5509 438.804 41.0232 434.345L41.0726 434.294L41.1461 434.244C52.0765 424.694 62.2883 415.575 73.636 402.002L73.66 401.977L73.6847 401.926C76.9002 397.946 76.1001 393.924 75.2892 390.97C74.481 388.025 73.3014 385.56 71.0538 383.27C68.7884 380.965 66.2386 379.816 63.4005 379.232L63.4299 379.199ZM61.0688 391.563C60.597 391.862 60.4449 391.791 60.9953 391.907C61.6267 392.061 62.4697 392.62 62.3248 392.469C62.128 392.266 62.9998 393.549 63.2627 394.447C52.9741 406.583 43.7242 415.001 33.2538 424.151C34.2097 423.347 32.553 424.228 31.6808 423.34C30.2165 421.817 31.1578 421.127 30.4699 421.966C40.611 410.348 51.5003 399.451 61.0837 391.574L61.0688 391.563ZM97.9755 417.387C94.6969 416.713 90.799 416.635 87.1757 419.296L87.028 419.371L86.8811 419.448C73.8345 430.125 59.5184 444.484 46.223 459.734L46.1743 459.784L46.1495 459.86C41.1028 465.994 42.4574 475.179 48.3584 481.333C54.4945 487.734 63.1154 488.495 69.141 483.589L69.2145 483.537L69.2639 483.46C82.9645 471.491 95.6758 460.167 109.83 443.238L109.855 443.188L109.88 443.163C113.331 438.891 112.519 434.368 111.575 430.923C110.632 427.48 109.199 424.537 106.674 421.972C104.143 419.406 101.171 418.044 97.9015 417.371L97.9755 417.387ZM94.4665 429.843C93.9776 430.206 94.4774 429.87 95.5254 430.108C96.6014 430.336 97.8495 431.11 97.9749 431.234H97.9995C98.0488 431.286 99.2234 433.104 99.6041 434.49C99.9825 435.875 99.2378 436.252 100.361 434.864C86.8901 450.964 74.9522 461.647 61.3972 473.489C61.9008 473.06 58.9572 474.014 57.2831 472.269C54.9884 469.876 55.9049 468.09 55.7107 468.326C68.5284 453.638 82.3016 439.834 94.4628 429.855L94.4665 429.843ZM134.307 453.978C131.469 453.393 128.03 453.291 124.717 455.731L124.462 455.934C113.981 464.514 102.551 476.004 91.912 488.207L91.8626 488.257L91.8138 488.309C87.2556 493.845 88.5888 501.925 93.6591 507.215C99.0019 512.787 106.428 513.583 111.901 509.124L111.949 509.072L112.023 509.023C122.953 499.473 133.165 490.354 144.514 476.783L144.538 476.731L144.562 476.707C147.777 472.727 146.948 468.705 146.135 465.749C145.326 462.793 144.192 460.314 141.93 458.018C139.664 455.708 137.114 454.597 134.277 454.013L134.307 453.978ZM131.946 466.342C131.474 466.641 131.322 466.57 131.872 466.684C132.503 466.838 133.346 467.362 133.201 467.219V467.244C133.005 467.041 133.877 468.322 134.14 469.217C123.852 481.356 114.601 489.774 104.131 498.922C105.089 498.119 103.404 498.998 102.529 498.111C101.065 496.585 102.035 495.899 101.35 496.735C111.491 485.116 122.381 474.219 131.964 466.342H131.946Z" fill="url(#paint0_linear_1412_8691)"/>
<defs>
<linearGradient id="paint0_linear_1412_8691" x1="-109.694" y1="216.103" x2="262.824" y2="-94.6659" gradientUnits="userSpaceOnUse">
<stop stop-color="#35B8FA"/>
<stop offset="1" stop-color="#AC2DFE"/>
</linearGradient>
</defs>
</svg>
